<svg width="2100" height="1100" viewBox="0 0 2100 1100" fill="none" xmlns="http://www.w3.org/2000/svg">
<g clip-path="url(#clip0_1_21)">
<rect width="2100" height="1100" fill="white"/>
<rect x="-0.102539" y="-4.10254" width="2100" height="1100" fill="#F7F7F7"/>
<rect x="-37" y="-4" width="597" height="1126" fill="#111111"/>
<path d="M508.979 1133.96C831.503 1133.96 1092.96 872.503 1092.96 549.979C1092.96 227.457 831.503 -34 508.979 -34C186.457 -34 -75 227.457 -75 549.979C-75 872.503 186.457 1133.96 508.979 1133.96Z" fill="#111111"/>
<path d="M480.6 724.407V292.972L453.914 285.188C445.018 281.852 438.346 272.957 438.346 264.061V153.978C438.346 146.195 446.13 132.851 455.026 132.851H658.512C667.407 132.851 675.191 145.083 675.191 152.866V264.061C675.191 272.957 668.519 282.964 659.624 285.188C655.176 286.3 636.273 291.86 632.937 292.972H631.825V724.407L661.848 734.415C668.519 736.639 675.191 746.646 675.191 754.43V864.513C675.191 874.52 666.296 885.64 657.4 885.64H457.249C447.242 885.64 438.346 873.408 438.346 864.513V752.206C431.675 754.43 425.003 757.766 422.779 764.437C421.667 766.661 421.667 768.885 420.555 769.997L387.197 795.572V781.117L462.809 724.407V731.079L480.6 724.407ZM349.391 221.807C352.726 219.583 357.174 214.023 362.734 214.023H378.301L343.831 239.598C343.831 234.039 344.943 225.143 349.391 221.807ZM343.831 257.389L401.652 214.023H419.443L343.831 270.733V257.389ZM343.831 288.524L420.555 230.703V244.046L343.831 301.867V288.524ZM343.831 333.002V318.547L418.331 262.949C419.443 262.949 419.443 261.837 420.555 261.837V275.181L343.831 333.002ZM344.943 349.681L422.779 291.86C423.891 295.196 426.115 297.42 428.339 300.755L349.391 359.689C348.279 358.577 343.831 350.793 344.943 349.681ZM374.965 370.808L362.734 367.472L442.794 306.315H445.018L456.137 309.651V310.763L374.965 370.808ZM387.197 391.935V379.704L462.809 322.994V335.226L387.197 391.935ZM387.197 409.726L462.809 353.017V366.36L387.197 423.07V409.726ZM387.197 440.861L462.809 384.151V397.495L387.197 454.204V440.861ZM387.197 485.339V471.995L462.809 415.286V428.629L387.197 485.339ZM387.197 503.13L462.809 446.42V459.764L387.197 516.473V503.13ZM387.197 534.264L462.809 477.555V490.898L387.197 547.608V534.264ZM387.197 578.742V565.399L462.809 507.578V522.033L387.197 578.742ZM387.197 609.877V596.533L462.809 538.712V553.167L387.197 609.877ZM387.197 627.668L462.809 569.847V583.19L387.197 641.011V627.668ZM387.197 672.146V658.802L462.809 600.981V614.325L387.197 672.146ZM387.197 703.28V688.825L462.809 632.116V645.459L387.197 703.28ZM387.197 719.96L462.809 663.25V676.594L387.197 734.415V719.96ZM387.197 751.094L462.809 694.385V706.616L387.197 764.437V751.094ZM343.831 844.498L420.555 787.788V801.132L343.831 858.953V844.498ZM359.398 815.587L347.167 824.483C347.167 821.147 357.174 815.587 359.398 815.587ZM343.831 888.976V875.632L418.331 820.035C419.443 820.035 419.443 818.923 420.555 818.923V832.266L343.831 888.976ZM343.831 920.11V906.767L420.555 850.057V863.401L343.831 920.11ZM343.831 937.901L419.443 881.192H420.555C420.555 885.64 421.667 888.976 422.779 892.311L344.943 950.133C343.831 947.909 343.831 944.573 343.831 941.237V937.901ZM352.726 962.364H353.838L431.675 903.431C435.01 903.431 437.234 904.543 439.458 904.543H448.354L364.958 966.812C360.51 966.812 354.95 965.7 352.726 962.364ZM407.212 966.812H389.421L471.705 904.543H489.496L407.212 966.812ZM430.563 966.812L512.847 904.543H530.638L448.354 966.812H430.563ZM471.705 966.812L555.101 904.543H572.892L489.496 966.812H471.705ZM531.75 966.812H513.959L581.788 915.662V929.006L531.75 966.812ZM563.996 966.812H555.101L580.676 946.797C580.676 955.692 572.892 966.812 563.996 966.812Z" fill="#FCFCFC"/>
<path d="M1220.36 170.818V285H1189.36V170.818H1220.36ZM1266.27 236.83V285H1235.49V199.364H1264.71V215.643H1265.6C1267.46 210.217 1270.73 205.961 1275.41 202.876C1280.13 199.791 1285.64 198.249 1291.92 198.249C1297.98 198.249 1303.23 199.642 1307.69 202.43C1312.19 205.181 1315.67 208.972 1318.12 213.804C1320.61 218.636 1321.84 224.155 1321.8 230.362V285H1291.02V236.83C1291.06 232.592 1289.98 229.266 1287.79 226.85C1285.64 224.434 1282.62 223.226 1278.76 223.226C1276.23 223.226 1274.02 223.783 1272.12 224.898C1270.27 225.976 1268.84 227.537 1267.83 229.582C1266.83 231.589 1266.31 234.005 1266.27 236.83ZM1388.06 199.364V221.665H1331.64V199.364H1388.06ZM1342.57 178.847H1373.34V257.458C1373.34 258.647 1373.55 259.651 1373.96 260.469C1374.37 261.249 1375 261.844 1375.85 262.253C1376.71 262.625 1377.8 262.81 1379.14 262.81C1380.07 262.81 1381.15 262.699 1382.38 262.476C1383.64 262.253 1384.57 262.067 1385.16 261.918L1389.62 283.55C1388.25 283.959 1386.28 284.461 1383.71 285.056C1381.19 285.65 1378.18 286.041 1374.68 286.227C1367.62 286.598 1361.69 285.873 1356.9 284.052C1352.1 282.194 1348.5 279.276 1346.08 275.299C1343.66 271.322 1342.49 266.341 1342.57 260.357V178.847ZM1440.73 286.561C1431.59 286.561 1423.71 284.814 1417.1 281.32C1410.52 277.789 1405.44 272.734 1401.88 266.156C1398.34 259.54 1396.58 251.623 1396.58 242.405C1396.58 233.559 1398.36 225.828 1401.93 219.212C1405.5 212.596 1410.54 207.448 1417.04 203.768C1423.54 200.088 1431.22 198.249 1440.07 198.249C1446.53 198.249 1452.39 199.252 1457.63 201.259C1462.87 203.266 1467.35 206.184 1471.06 210.012C1474.78 213.804 1477.64 218.413 1479.65 223.839C1481.66 229.266 1482.66 235.38 1482.66 242.182V249.318H1406.17V232.369H1454.34C1454.3 229.916 1453.67 227.76 1452.44 225.902C1451.25 224.006 1449.64 222.538 1447.59 221.498C1445.59 220.42 1443.3 219.881 1440.73 219.881C1438.24 219.881 1435.96 220.42 1433.88 221.498C1431.8 222.538 1430.12 223.988 1428.86 225.846C1427.63 227.705 1426.98 229.879 1426.91 232.369V250.656C1426.91 253.407 1427.48 255.86 1428.64 258.016C1429.79 260.171 1431.44 261.863 1433.6 263.089C1435.75 264.316 1438.36 264.929 1441.4 264.929C1443.52 264.929 1445.46 264.632 1447.2 264.037C1448.99 263.442 1450.51 262.587 1451.77 261.472C1453.04 260.32 1453.97 258.945 1454.56 257.347H1482.66C1481.69 263.294 1479.41 268.46 1475.8 272.846C1472.2 277.195 1467.42 280.577 1461.48 282.993C1455.57 285.372 1448.65 286.561 1440.73 286.561ZM1495.22 285V199.364H1525.1V215.643H1526C1527.56 209.622 1530.03 205.218 1533.41 202.43C1536.83 199.642 1540.83 198.249 1545.4 198.249C1546.74 198.249 1548.05 198.36 1549.36 198.583C1550.69 198.769 1551.98 199.048 1553.2 199.419V225.679C1551.68 225.159 1549.8 224.768 1547.57 224.508C1545.34 224.248 1543.43 224.118 1541.83 224.118C1538.82 224.118 1536.1 224.806 1533.69 226.181C1531.31 227.519 1529.43 229.414 1528.06 231.868C1526.68 234.283 1526 237.127 1526 240.398V285H1495.22ZM1652.21 199.364L1623.44 285H1587.76L1558.99 199.364H1591.32L1605.15 256.009H1606.04L1619.87 199.364H1652.21ZM1660.96 285V199.364H1691.73V285H1660.96ZM1676.35 190.443C1672.18 190.443 1668.62 189.068 1665.64 186.317C1662.67 183.567 1661.18 180.259 1661.18 176.393C1661.18 172.528 1662.67 169.22 1665.64 166.469C1668.62 163.719 1672.18 162.344 1676.35 162.344C1680.55 162.344 1684.11 163.719 1687.05 166.469C1690.02 169.22 1691.51 172.528 1691.51 176.393C1691.51 180.259 1690.02 183.567 1687.05 186.317C1684.11 189.068 1680.55 190.443 1676.35 190.443ZM1748.45 286.561C1739.31 286.561 1731.43 284.814 1724.81 281.32C1718.23 277.789 1713.16 272.734 1709.59 266.156C1706.06 259.54 1704.29 251.623 1704.29 242.405C1704.29 233.559 1706.08 225.828 1709.64 219.212C1713.21 212.596 1718.25 207.448 1724.75 203.768C1731.26 200.088 1738.93 198.249 1747.78 198.249C1754.25 198.249 1760.1 199.252 1765.34 201.259C1770.58 203.266 1775.06 206.184 1778.78 210.012C1782.5 213.804 1785.36 218.413 1787.36 223.839C1789.37 229.266 1790.38 235.38 1790.38 242.182V249.318H1713.88V232.369H1762.05C1762.02 229.916 1761.38 227.76 1760.16 225.902C1758.97 224.006 1757.35 222.538 1755.31 221.498C1753.3 220.42 1751.01 219.881 1748.45 219.881C1745.96 219.881 1743.67 220.42 1741.59 221.498C1739.51 222.538 1737.84 223.988 1736.57 225.846C1735.35 227.705 1734.7 229.879 1734.62 232.369V250.656C1734.62 253.407 1735.2 255.86 1736.35 258.016C1737.5 260.171 1739.16 261.863 1741.31 263.089C1743.47 264.316 1746.07 264.929 1749.12 264.929C1751.24 264.929 1753.17 264.632 1754.92 264.037C1756.7 263.442 1758.22 262.587 1759.49 261.472C1760.75 260.32 1761.68 258.945 1762.28 257.347H1790.38C1789.41 263.294 1787.12 268.46 1783.52 272.846C1779.91 277.195 1775.14 280.577 1769.19 282.993C1763.28 285.372 1756.37 286.561 1748.45 286.561ZM1817.02 285L1795.62 199.364H1826.39L1836.2 251.548H1836.87L1847.8 199.364H1877.68L1889.06 251.102H1889.73L1899.09 199.364H1929.87L1908.46 285H1875.23L1863.19 239.06H1862.3L1850.25 285H1817.02ZM2017.51 227.24H1989.19C1989.04 225.493 1988.43 223.988 1987.35 222.724C1986.27 221.46 1984.88 220.494 1983.17 219.825C1981.5 219.119 1979.64 218.766 1977.59 218.766C1974.95 218.766 1972.69 219.249 1970.79 220.215C1968.9 221.182 1967.97 222.557 1968 224.341C1967.97 225.605 1968.51 226.775 1969.62 227.853C1970.77 228.931 1972.98 229.768 1976.25 230.362L1993.65 233.484C2002.42 235.083 2008.94 237.777 2013.22 241.569C2017.53 245.323 2019.71 250.359 2019.74 256.678C2019.71 262.773 2017.88 268.07 2014.28 272.567C2010.71 277.027 2005.82 280.484 1999.62 282.937C1993.45 285.353 1986.4 286.561 1978.49 286.561C1965.4 286.561 1955.16 283.885 1947.77 278.533C1940.41 273.18 1936.3 266.118 1935.44 257.347H1966C1966.41 260.06 1967.74 262.16 1970.01 263.647C1972.32 265.096 1975.21 265.821 1978.71 265.821C1981.53 265.821 1983.86 265.338 1985.68 264.371C1987.54 263.405 1988.48 262.03 1988.52 260.246C1988.48 258.61 1987.67 257.309 1986.07 256.343C1984.51 255.377 1982.05 254.596 1978.71 254.001L1963.54 251.325C1954.81 249.801 1948.27 246.902 1943.92 242.628C1939.57 238.353 1937.41 232.853 1937.45 226.125C1937.41 220.178 1938.97 215.142 1942.13 211.016C1945.33 206.853 1949.88 203.694 1955.79 201.538C1961.74 199.345 1968.78 198.249 1976.92 198.249C1989.3 198.249 1999.06 200.813 2006.19 205.942C2013.37 211.072 2017.14 218.171 2017.51 227.24Z" fill="#111111"/>
<path d="M1193.89 490H1183.76L1202.2 437.636H1213.91L1232.37 490H1222.24L1208.26 448.375H1207.85L1193.89 490ZM1194.22 469.469H1221.84V477.088H1194.22V469.469ZM1265.97 437.636V490H1256.72V437.636H1265.97ZM1275.49 490V450.727H1284.75V490H1275.49ZM1280.14 445.153C1278.68 445.153 1277.42 444.668 1276.36 443.696C1275.3 442.707 1274.77 441.523 1274.77 440.142C1274.77 438.744 1275.3 437.56 1276.36 436.588C1277.42 435.599 1278.68 435.105 1280.14 435.105C1281.63 435.105 1282.89 435.599 1283.93 436.588C1284.98 437.56 1285.51 438.744 1285.51 440.142C1285.51 441.523 1284.98 442.707 1283.93 443.696C1282.89 444.668 1281.63 445.153 1280.14 445.153ZM1294.67 490V437.636H1303.93V457.222H1304.31C1304.79 456.267 1305.46 455.253 1306.33 454.179C1307.2 453.088 1308.38 452.159 1309.86 451.392C1311.34 450.608 1313.24 450.216 1315.54 450.216C1318.57 450.216 1321.31 450.991 1323.74 452.543C1326.2 454.077 1328.14 456.352 1329.57 459.369C1331.02 462.369 1331.75 466.051 1331.75 470.415C1331.75 474.727 1331.04 478.392 1329.62 481.409C1328.21 484.426 1326.28 486.727 1323.85 488.312C1321.41 489.898 1318.65 490.69 1315.56 490.69C1313.31 490.69 1311.45 490.315 1309.96 489.565C1308.48 488.815 1307.29 487.912 1306.38 486.855C1305.5 485.781 1304.81 484.767 1304.31 483.812H1303.77V490H1294.67ZM1303.75 470.364C1303.75 472.903 1304.11 475.128 1304.82 477.037C1305.56 478.946 1306.6 480.437 1307.97 481.511C1309.35 482.568 1311.02 483.097 1312.98 483.097C1315.02 483.097 1316.74 482.551 1318.12 481.46C1319.5 480.352 1320.54 478.844 1321.24 476.935C1321.95 475.009 1322.31 472.818 1322.31 470.364C1322.31 467.926 1321.96 465.761 1321.26 463.869C1320.56 461.977 1319.52 460.494 1318.14 459.42C1316.76 458.347 1315.04 457.81 1312.98 457.81C1311 457.81 1309.32 458.33 1307.94 459.369C1306.56 460.409 1305.51 461.866 1304.8 463.741C1304.1 465.616 1303.75 467.824 1303.75 470.364ZM1339.62 490V450.727H1348.59V457.273H1349C1349.71 455.006 1350.94 453.259 1352.68 452.031C1354.44 450.787 1356.44 450.165 1358.69 450.165C1359.2 450.165 1359.77 450.19 1360.4 450.241C1361.05 450.276 1361.59 450.335 1362.01 450.42V458.935C1361.62 458.798 1361 458.679 1360.15 458.577C1359.31 458.457 1358.5 458.398 1357.72 458.398C1356.03 458.398 1354.51 458.764 1353.17 459.497C1351.84 460.213 1350.79 461.21 1350.02 462.489C1349.25 463.767 1348.87 465.241 1348.87 466.912V490H1339.62ZM1378.76 490.793C1376.27 490.793 1374.03 490.349 1372.04 489.463C1370.06 488.56 1368.49 487.23 1367.33 485.474C1366.19 483.719 1365.62 481.554 1365.62 478.98C1365.62 476.764 1366.03 474.932 1366.85 473.483C1367.66 472.034 1368.78 470.875 1370.19 470.006C1371.61 469.136 1373.2 468.48 1374.98 468.037C1376.77 467.577 1378.62 467.244 1380.52 467.04C1382.83 466.801 1384.69 466.588 1386.12 466.401C1387.56 466.196 1388.6 465.889 1389.24 465.48C1389.91 465.054 1390.24 464.398 1390.24 463.511V463.358C1390.24 461.432 1389.67 459.94 1388.53 458.884C1387.38 457.827 1385.74 457.298 1383.59 457.298C1381.33 457.298 1379.53 457.793 1378.2 458.781C1376.88 459.77 1376 460.937 1375.54 462.284L1366.9 461.057C1367.58 458.67 1368.7 456.676 1370.27 455.074C1371.84 453.455 1373.76 452.244 1376.02 451.443C1378.29 450.625 1380.8 450.216 1383.54 450.216C1385.43 450.216 1387.32 450.438 1389.19 450.881C1391.07 451.324 1392.78 452.057 1394.33 453.08C1395.88 454.085 1397.13 455.457 1398.06 457.196C1399.02 458.935 1399.5 461.108 1399.5 463.716V490H1390.6V484.605H1390.29C1389.73 485.696 1388.94 486.719 1387.91 487.673C1386.91 488.611 1385.64 489.369 1384.1 489.949C1382.59 490.511 1380.81 490.793 1378.76 490.793ZM1381.16 483.991C1383.02 483.991 1384.63 483.625 1386 482.892C1387.36 482.142 1388.41 481.153 1389.14 479.926C1389.89 478.699 1390.27 477.361 1390.27 475.912V471.284C1389.98 471.523 1389.48 471.744 1388.78 471.949C1388.1 472.153 1387.33 472.332 1386.48 472.486C1385.63 472.639 1384.79 472.776 1383.95 472.895C1383.12 473.014 1382.39 473.116 1381.78 473.202C1380.4 473.389 1379.16 473.696 1378.07 474.122C1376.98 474.548 1376.12 475.145 1375.49 475.912C1374.86 476.662 1374.54 477.634 1374.54 478.827C1374.54 480.531 1375.16 481.818 1376.41 482.688C1377.65 483.557 1379.24 483.991 1381.16 483.991ZM1408.8 490V450.727H1417.78V457.273H1418.19C1418.9 455.006 1420.13 453.259 1421.87 452.031C1423.62 450.787 1425.63 450.165 1427.88 450.165C1428.39 450.165 1428.96 450.19 1429.59 450.241C1430.24 450.276 1430.77 450.335 1431.2 450.42V458.935C1430.81 458.798 1430.19 458.679 1429.33 458.577C1428.5 458.457 1427.69 458.398 1426.9 458.398C1425.22 458.398 1423.7 458.764 1422.35 459.497C1421.02 460.213 1419.98 461.21 1419.21 462.489C1418.44 463.767 1418.06 465.241 1418.06 466.912V490H1408.8ZM1444.3 504.727C1443.04 504.727 1441.87 504.625 1440.79 504.42C1439.74 504.233 1438.89 504.011 1438.26 503.756L1440.41 496.545C1441.76 496.938 1442.96 497.125 1444.02 497.108C1445.07 497.091 1446 496.759 1446.8 496.111C1447.62 495.48 1448.31 494.423 1448.87 492.94L1449.67 490.818L1435.43 450.727H1445.24L1454.29 480.386H1454.7L1463.78 450.727H1473.62L1457.9 494.756C1457.17 496.835 1456.2 498.616 1454.99 500.099C1453.77 501.599 1452.29 502.741 1450.54 503.526C1448.8 504.327 1446.72 504.727 1444.3 504.727ZM1515.02 490.767C1511.18 490.767 1507.86 489.923 1505.05 488.236C1502.24 486.548 1500.05 484.187 1498.5 481.153C1496.97 478.119 1496.2 474.574 1496.2 470.517C1496.2 466.46 1496.97 462.906 1498.5 459.855C1500.05 456.804 1502.24 454.435 1505.05 452.747C1507.86 451.06 1511.18 450.216 1515.02 450.216C1518.85 450.216 1522.18 451.06 1524.99 452.747C1527.8 454.435 1529.98 456.804 1531.51 459.855C1533.06 462.906 1533.84 466.46 1533.84 470.517C1533.84 474.574 1533.06 478.119 1531.51 481.153C1529.98 484.187 1527.8 486.548 1524.99 488.236C1522.18 489.923 1518.85 490.767 1515.02 490.767ZM1515.07 483.352C1517.15 483.352 1518.89 482.781 1520.29 481.639C1521.68 480.48 1522.72 478.929 1523.41 476.986C1524.1 475.043 1524.45 472.878 1524.45 470.491C1524.45 468.088 1524.1 465.915 1523.41 463.972C1522.72 462.011 1521.68 460.452 1520.29 459.293C1518.89 458.134 1517.15 457.554 1515.07 457.554C1512.94 457.554 1511.17 458.134 1509.75 459.293C1508.35 460.452 1507.31 462.011 1506.61 463.972C1505.93 465.915 1505.58 468.088 1505.58 470.491C1505.58 472.878 1505.93 475.043 1506.61 476.986C1507.31 478.929 1508.35 480.48 1509.75 481.639C1511.17 482.781 1512.94 483.352 1515.07 483.352ZM1561.59 450.727V457.886H1538.37V450.727H1561.59ZM1544.17 490V447.02C1544.17 444.378 1544.72 442.179 1545.81 440.423C1546.92 438.668 1548.4 437.355 1550.26 436.486C1552.12 435.616 1554.18 435.182 1556.45 435.182C1558.05 435.182 1559.47 435.31 1560.72 435.565C1561.96 435.821 1562.88 436.051 1563.48 436.256L1561.64 443.415C1561.24 443.295 1560.75 443.176 1560.15 443.057C1559.56 442.92 1558.89 442.852 1558.16 442.852C1556.44 442.852 1555.22 443.27 1554.5 444.105C1553.8 444.923 1553.45 446.099 1553.45 447.634V490H1544.17ZM1586.69 490V450.727H1595.67V457.273H1596.08C1596.79 455.006 1598.02 453.259 1599.76 452.031C1601.51 450.787 1603.52 450.165 1605.77 450.165C1606.28 450.165 1606.85 450.19 1607.48 450.241C1608.13 450.276 1608.66 450.335 1609.09 450.42V458.935C1608.7 458.798 1608.08 458.679 1607.22 458.577C1606.39 458.457 1605.58 458.398 1604.8 458.398C1603.11 458.398 1601.59 458.764 1600.24 459.497C1598.91 460.213 1597.87 461.21 1597.1 462.489C1596.33 463.767 1595.95 465.241 1595.95 466.912V490H1586.69ZM1631.01 490.767C1627.07 490.767 1623.67 489.949 1620.81 488.312C1617.96 486.659 1615.77 484.324 1614.24 481.307C1612.7 478.273 1611.94 474.702 1611.94 470.594C1611.94 466.554 1612.7 463.009 1614.24 459.957C1615.79 456.889 1617.95 454.503 1620.73 452.798C1623.51 451.077 1626.77 450.216 1630.52 450.216C1632.94 450.216 1635.23 450.608 1637.38 451.392C1639.54 452.159 1641.45 453.352 1643.1 454.972C1644.77 456.591 1646.09 458.653 1647.04 461.159C1648 463.648 1648.47 466.614 1648.47 470.057V472.895H1616.28V466.656H1639.6C1639.58 464.884 1639.2 463.307 1638.45 461.926C1637.7 460.528 1636.65 459.429 1635.3 458.628C1633.98 457.827 1632.42 457.426 1630.65 457.426C1628.76 457.426 1627.1 457.886 1625.67 458.807C1624.23 459.71 1623.12 460.903 1622.32 462.386C1621.53 463.852 1621.13 465.463 1621.11 467.219V472.665C1621.11 474.949 1621.53 476.909 1622.37 478.545C1623.2 480.165 1624.37 481.409 1625.87 482.278C1627.37 483.131 1629.13 483.557 1631.14 483.557C1632.48 483.557 1633.7 483.369 1634.79 482.994C1635.88 482.602 1636.83 482.031 1637.63 481.281C1638.43 480.531 1639.04 479.602 1639.45 478.494L1648.09 479.466C1647.54 481.75 1646.5 483.744 1644.97 485.449C1643.45 487.136 1641.51 488.449 1639.14 489.386C1636.77 490.307 1634.06 490.767 1631.01 490.767ZM1667.6 490.793C1665.12 490.793 1662.87 490.349 1660.88 489.463C1658.9 488.56 1657.33 487.23 1656.17 485.474C1655.03 483.719 1654.46 481.554 1654.46 478.98C1654.46 476.764 1654.87 474.932 1655.69 473.483C1656.51 472.034 1657.62 470.875 1659.04 470.006C1660.45 469.136 1662.05 468.48 1663.82 468.037C1665.61 467.577 1667.46 467.244 1669.37 467.04C1671.67 466.801 1673.54 466.588 1674.97 466.401C1676.4 466.196 1677.44 465.889 1678.09 465.48C1678.75 465.054 1679.08 464.398 1679.08 463.511V463.358C1679.08 461.432 1678.51 459.94 1677.37 458.884C1676.23 457.827 1674.58 457.298 1672.44 457.298C1670.17 457.298 1668.37 457.793 1667.04 458.781C1665.73 459.77 1664.84 460.937 1664.38 462.284L1655.74 461.057C1656.42 458.67 1657.55 456.676 1659.12 455.074C1660.68 453.455 1662.6 452.244 1664.87 451.443C1667.13 450.625 1669.64 450.216 1672.38 450.216C1674.28 450.216 1676.16 450.438 1678.04 450.881C1679.91 451.324 1681.62 452.057 1683.17 453.08C1684.73 454.085 1685.97 455.457 1686.91 457.196C1687.86 458.935 1688.34 461.108 1688.34 463.716V490H1679.44V484.605H1679.13C1678.57 485.696 1677.78 486.719 1676.76 487.673C1675.75 488.611 1674.48 489.369 1672.95 489.949C1671.43 490.511 1669.65 490.793 1667.6 490.793ZM1670.01 483.991C1671.87 483.991 1673.48 483.625 1674.84 482.892C1676.2 482.142 1677.25 481.153 1677.98 479.926C1678.73 478.699 1679.11 477.361 1679.11 475.912V471.284C1678.82 471.523 1678.33 471.744 1677.63 471.949C1676.94 472.153 1676.18 472.332 1675.33 472.486C1674.47 472.639 1673.63 472.776 1672.79 472.895C1671.96 473.014 1671.23 473.116 1670.62 473.202C1669.24 473.389 1668 473.696 1666.91 474.122C1665.82 474.548 1664.96 475.145 1664.33 475.912C1663.7 476.662 1663.38 477.634 1663.38 478.827C1663.38 480.531 1664.01 481.818 1665.25 482.688C1666.5 483.557 1668.08 483.991 1670.01 483.991ZM1706.9 437.636V490H1697.65V437.636H1706.9ZM1740.22 464.381V472H1716.65V464.381H1740.22ZM1758.06 490L1746.97 450.727H1756.4L1763.31 478.341H1763.66L1770.72 450.727H1780.05L1787.11 478.188H1787.49L1794.29 450.727H1803.75L1792.63 490H1782.99L1775.63 463.46H1775.09L1767.73 490H1758.06ZM1826.22 490.767C1822.39 490.767 1819.06 489.923 1816.25 488.236C1813.44 486.548 1811.26 484.187 1809.71 481.153C1808.17 478.119 1807.4 474.574 1807.4 470.517C1807.4 466.46 1808.17 462.906 1809.71 459.855C1811.26 456.804 1813.44 454.435 1816.25 452.747C1819.06 451.06 1822.39 450.216 1826.22 450.216C1830.06 450.216 1833.38 451.06 1836.19 452.747C1839.01 454.435 1841.18 456.804 1842.71 459.855C1844.26 462.906 1845.04 466.46 1845.04 470.517C1845.04 474.574 1844.26 478.119 1842.71 481.153C1841.18 484.187 1839.01 486.548 1836.19 488.236C1833.38 489.923 1830.06 490.767 1826.22 490.767ZM1826.27 483.352C1828.35 483.352 1830.09 482.781 1831.49 481.639C1832.89 480.48 1833.93 478.929 1834.61 476.986C1835.31 475.043 1835.66 472.878 1835.66 470.491C1835.66 468.088 1835.31 465.915 1834.61 463.972C1833.93 462.011 1832.89 460.452 1831.49 459.293C1830.09 458.134 1828.35 457.554 1826.27 457.554C1824.14 457.554 1822.37 458.134 1820.96 459.293C1819.56 460.452 1818.51 462.011 1817.81 463.972C1817.13 465.915 1816.79 468.088 1816.79 470.491C1816.79 472.878 1817.13 475.043 1817.81 476.986C1818.51 478.929 1819.56 480.48 1820.96 481.639C1822.37 482.781 1824.14 483.352 1826.27 483.352ZM1852.9 490V450.727H1861.87V457.273H1862.28C1863 455.006 1864.22 453.259 1865.96 452.031C1867.72 450.787 1869.72 450.165 1871.97 450.165C1872.48 450.165 1873.05 450.19 1873.68 450.241C1874.33 450.276 1874.87 450.335 1875.29 450.42V458.935C1874.9 458.798 1874.28 458.679 1873.43 458.577C1872.59 458.457 1871.78 458.398 1871 458.398C1869.31 458.398 1867.79 458.764 1866.45 459.497C1865.12 460.213 1864.07 461.21 1863.3 462.489C1862.54 463.767 1862.15 465.241 1862.15 466.912V490H1852.9ZM1890.7 437.636V490H1881.44V437.636H1890.7ZM1914.79 490.69C1911.71 490.69 1908.94 489.898 1906.51 488.312C1904.07 486.727 1902.14 484.426 1900.73 481.409C1899.31 478.392 1898.61 474.727 1898.61 470.415C1898.61 466.051 1899.32 462.369 1900.75 459.369C1902.2 456.352 1904.15 454.077 1906.61 452.543C1909.06 450.991 1911.8 450.216 1914.82 450.216C1917.12 450.216 1919.01 450.608 1920.49 451.392C1921.98 452.159 1923.15 453.088 1924.02 454.179C1924.89 455.253 1925.56 456.267 1926.04 457.222H1926.42V437.636H1935.71V490H1926.6V483.812H1926.04C1925.56 484.767 1924.87 485.781 1923.97 486.855C1923.07 487.912 1921.87 488.815 1920.39 489.565C1918.91 490.315 1917.04 490.69 1914.79 490.69ZM1917.37 483.097C1919.33 483.097 1921 482.568 1922.38 481.511C1923.76 480.437 1924.81 478.946 1925.53 477.037C1926.25 475.128 1926.6 472.903 1926.6 470.364C1926.6 467.824 1926.25 465.616 1925.53 463.741C1924.83 461.866 1923.79 460.409 1922.41 459.369C1921.05 458.33 1919.37 457.81 1917.37 457.81C1915.31 457.81 1913.59 458.347 1912.21 459.42C1910.83 460.494 1909.79 461.977 1909.09 463.869C1908.39 465.761 1908.04 467.926 1908.04 470.364C1908.04 472.818 1908.39 475.009 1909.09 476.935C1909.8 478.844 1910.85 480.352 1912.23 481.46C1913.63 482.551 1915.34 483.097 1917.37 483.097ZM1186.76 591.727V537.727H1195.86V544.222H1196.39C1196.87 543.267 1197.55 542.253 1198.41 541.179C1199.28 540.088 1200.46 539.159 1201.94 538.392C1203.43 537.608 1205.32 537.216 1207.62 537.216C1210.65 537.216 1213.39 537.991 1215.83 539.543C1218.28 541.077 1220.22 543.352 1221.66 546.369C1223.11 549.369 1223.83 553.051 1223.83 557.415C1223.83 561.727 1223.12 565.392 1221.71 568.409C1220.29 571.426 1218.37 573.727 1215.93 575.312C1213.49 576.898 1210.73 577.69 1207.64 577.69C1205.39 577.69 1203.53 577.315 1202.05 576.565C1200.56 575.815 1199.37 574.912 1198.47 573.855C1197.58 572.781 1196.89 571.767 1196.39 570.812H1196.01V591.727H1186.76ZM1195.83 557.364C1195.83 559.903 1196.19 562.128 1196.91 564.037C1197.64 565.946 1198.69 567.437 1200.05 568.511C1201.43 569.568 1203.1 570.097 1205.06 570.097C1207.11 570.097 1208.82 569.551 1210.2 568.46C1211.58 567.352 1212.62 565.844 1213.32 563.935C1214.04 562.009 1214.39 559.818 1214.39 557.364C1214.39 554.926 1214.05 552.761 1213.35 550.869C1212.65 548.977 1211.61 547.494 1210.23 546.42C1208.85 545.347 1207.12 544.81 1205.06 544.81C1203.09 544.81 1201.41 545.33 1200.03 546.369C1198.64 547.409 1197.6 548.866 1196.88 550.741C1196.18 552.616 1195.83 554.824 1195.83 557.364ZM1231.76 577V537.727H1240.73V544.273H1241.14C1241.86 542.006 1243.08 540.259 1244.82 539.031C1246.58 537.787 1248.58 537.165 1250.83 537.165C1251.34 537.165 1251.91 537.19 1252.54 537.241C1253.19 537.276 1253.73 537.335 1254.15 537.42V545.935C1253.76 545.798 1253.14 545.679 1252.29 545.577C1251.45 545.457 1250.64 545.398 1249.86 545.398C1248.17 545.398 1246.65 545.764 1245.31 546.497C1243.98 547.213 1242.93 548.21 1242.16 549.489C1241.39 550.767 1241.01 552.241 1241.01 553.912V577H1231.76ZM1275.82 577.767C1271.98 577.767 1268.66 576.923 1265.84 575.236C1263.03 573.548 1260.85 571.187 1259.3 568.153C1257.76 565.119 1257 561.574 1257 557.517C1257 553.46 1257.76 549.906 1259.3 546.855C1260.85 543.804 1263.03 541.435 1265.84 539.747C1268.66 538.06 1271.98 537.216 1275.82 537.216C1279.65 537.216 1282.98 538.06 1285.79 539.747C1288.6 541.435 1290.77 543.804 1292.31 546.855C1293.86 549.906 1294.63 553.46 1294.63 557.517C1294.63 561.574 1293.86 565.119 1292.31 568.153C1290.77 571.187 1288.6 573.548 1285.79 575.236C1282.98 576.923 1279.65 577.767 1275.82 577.767ZM1275.87 570.352C1277.95 570.352 1279.69 569.781 1281.08 568.639C1282.48 567.48 1283.52 565.929 1284.2 563.986C1284.9 562.043 1285.25 559.878 1285.25 557.491C1285.25 555.088 1284.9 552.915 1284.2 550.972C1283.52 549.011 1282.48 547.452 1281.08 546.293C1279.69 545.134 1277.95 544.554 1275.87 544.554C1273.74 544.554 1271.96 545.134 1270.55 546.293C1269.15 547.452 1268.1 549.011 1267.4 550.972C1266.72 552.915 1266.38 555.088 1266.38 557.491C1266.38 559.878 1266.72 562.043 1267.4 563.986C1268.1 565.929 1269.15 567.48 1270.55 568.639C1271.96 569.781 1273.74 570.352 1275.87 570.352ZM1319.57 592.545C1316.25 592.545 1313.39 592.094 1311 591.19C1308.62 590.304 1306.7 589.111 1305.25 587.611C1303.8 586.111 1302.8 584.449 1302.23 582.625L1310.57 580.605C1310.94 581.372 1311.49 582.131 1312.21 582.881C1312.92 583.648 1313.88 584.278 1315.1 584.773C1316.32 585.284 1317.87 585.54 1319.72 585.54C1322.35 585.54 1324.52 584.901 1326.24 583.622C1327.96 582.361 1328.83 580.281 1328.83 577.384V569.943H1328.37C1327.89 570.898 1327.19 571.878 1326.27 572.884C1325.37 573.889 1324.16 574.733 1322.66 575.415C1321.18 576.097 1319.31 576.438 1317.06 576.438C1314.05 576.438 1311.31 575.73 1308.86 574.315C1306.42 572.884 1304.48 570.753 1303.03 567.923C1301.6 565.077 1300.88 561.514 1300.88 557.236C1300.88 552.923 1301.6 549.284 1303.03 546.318C1304.48 543.335 1306.43 541.077 1308.88 539.543C1311.34 537.991 1314.07 537.216 1317.09 537.216C1319.39 537.216 1321.28 537.608 1322.77 538.392C1324.27 539.159 1325.46 540.088 1326.35 541.179C1327.23 542.253 1327.9 543.267 1328.37 544.222H1328.88V537.727H1338V577.639C1338 580.997 1337.2 583.776 1335.6 585.974C1334 588.173 1331.81 589.818 1329.03 590.909C1326.25 592 1323.1 592.545 1319.57 592.545ZM1319.65 569.176C1321.61 569.176 1323.28 568.699 1324.66 567.744C1326.04 566.79 1327.09 565.418 1327.8 563.628C1328.52 561.838 1328.88 559.69 1328.88 557.185C1328.88 554.713 1328.52 552.548 1327.8 550.69C1327.1 548.832 1326.06 547.392 1324.68 546.369C1323.32 545.33 1321.64 544.81 1319.65 544.81C1317.58 544.81 1315.86 545.347 1314.48 546.42C1313.1 547.494 1312.06 548.969 1311.36 550.844C1310.66 552.702 1310.31 554.815 1310.31 557.185C1310.31 559.588 1310.66 561.693 1311.36 563.5C1312.08 565.29 1313.13 566.687 1314.51 567.693C1315.9 568.682 1317.62 569.176 1319.65 569.176ZM1347.49 577V537.727H1356.46V544.273H1356.87C1357.59 542.006 1358.82 540.259 1360.56 539.031C1362.31 537.787 1364.31 537.165 1366.56 537.165C1367.08 537.165 1367.65 537.19 1368.28 537.241C1368.92 537.276 1369.46 537.335 1369.89 537.42V545.935C1369.5 545.798 1368.87 545.679 1368.02 545.577C1367.19 545.457 1366.38 545.398 1365.59 545.398C1363.9 545.398 1362.39 545.764 1361.04 546.497C1359.71 547.213 1358.66 548.21 1357.9 549.489C1357.13 550.767 1356.75 552.241 1356.75 553.912V577H1347.49ZM1386.63 577.793C1384.15 577.793 1381.9 577.349 1379.91 576.463C1377.93 575.56 1376.37 574.23 1375.21 572.474C1374.06 570.719 1373.49 568.554 1373.49 565.98C1373.49 563.764 1373.9 561.932 1374.72 560.483C1375.54 559.034 1376.65 557.875 1378.07 557.006C1379.48 556.136 1381.08 555.48 1382.85 555.037C1384.64 554.577 1386.49 554.244 1388.4 554.04C1390.7 553.801 1392.57 553.588 1394 553.401C1395.43 553.196 1396.47 552.889 1397.12 552.48C1397.78 552.054 1398.12 551.398 1398.12 550.511V550.358C1398.12 548.432 1397.54 546.94 1396.4 545.884C1395.26 544.827 1393.62 544.298 1391.47 544.298C1389.2 544.298 1387.4 544.793 1386.07 545.781C1384.76 546.77 1383.87 547.937 1383.41 549.284L1374.77 548.057C1375.45 545.67 1376.58 543.676 1378.15 542.074C1379.71 540.455 1381.63 539.244 1383.9 538.443C1386.17 537.625 1388.67 537.216 1391.42 537.216C1393.31 537.216 1395.19 537.438 1397.07 537.881C1398.94 538.324 1400.65 539.057 1402.21 540.08C1403.76 541.085 1405 542.457 1405.94 544.196C1406.89 545.935 1407.37 548.108 1407.37 550.716V577H1398.47V571.605H1398.17C1397.6 572.696 1396.81 573.719 1395.79 574.673C1394.78 575.611 1393.51 576.369 1391.98 576.949C1390.46 577.511 1388.68 577.793 1386.63 577.793ZM1389.04 570.991C1390.9 570.991 1392.51 570.625 1393.87 569.892C1395.23 569.142 1396.28 568.153 1397.02 566.926C1397.77 565.699 1398.14 564.361 1398.14 562.912V558.284C1397.85 558.523 1397.36 558.744 1396.66 558.949C1395.98 559.153 1395.21 559.332 1394.36 559.486C1393.5 559.639 1392.66 559.776 1391.83 559.895C1390.99 560.014 1390.27 560.116 1389.65 560.202C1388.27 560.389 1387.04 560.696 1385.94 561.122C1384.85 561.548 1383.99 562.145 1383.36 562.912C1382.73 563.662 1382.42 564.634 1382.42 565.827C1382.42 567.531 1383.04 568.818 1384.28 569.688C1385.53 570.557 1387.11 570.991 1389.04 570.991ZM1416.68 577V537.727H1425.52V544.401H1425.98C1426.8 542.151 1428.16 540.395 1430.05 539.134C1431.94 537.855 1434.2 537.216 1436.83 537.216C1439.48 537.216 1441.73 537.864 1443.55 539.159C1445.39 540.437 1446.69 542.185 1447.44 544.401H1447.85C1448.71 542.219 1450.18 540.48 1452.24 539.185C1454.32 537.872 1456.79 537.216 1459.63 537.216C1463.25 537.216 1466.19 538.358 1468.48 540.642C1470.76 542.926 1471.9 546.259 1471.9 550.639V577H1462.62V552.071C1462.62 549.634 1461.98 547.852 1460.68 546.727C1459.38 545.585 1457.8 545.014 1455.92 545.014C1453.69 545.014 1451.94 545.713 1450.68 547.111C1449.44 548.491 1448.82 550.29 1448.82 552.506V577H1439.74V551.688C1439.74 549.659 1439.13 548.04 1437.9 546.83C1436.69 545.619 1435.1 545.014 1433.14 545.014C1431.81 545.014 1430.6 545.355 1429.51 546.037C1428.42 546.702 1427.55 547.648 1426.9 548.875C1426.26 550.085 1425.93 551.5 1425.93 553.119V577H1416.68ZM1481.29 577V537.727H1490.14V544.401H1490.6C1491.42 542.151 1492.77 540.395 1494.67 539.134C1496.56 537.855 1498.82 537.216 1501.44 537.216C1504.1 537.216 1506.34 537.864 1508.17 539.159C1510.01 540.437 1511.3 542.185 1512.05 544.401H1512.46C1513.33 542.219 1514.8 540.48 1516.86 539.185C1518.94 537.872 1521.4 537.216 1524.25 537.216C1527.86 537.216 1530.81 538.358 1533.1 540.642C1535.38 542.926 1536.52 546.259 1536.52 550.639V577H1527.24V552.071C1527.24 549.634 1526.59 547.852 1525.3 546.727C1524 545.585 1522.42 545.014 1520.54 545.014C1518.31 545.014 1516.56 545.713 1515.3 547.111C1514.06 548.491 1513.43 550.29 1513.43 552.506V577H1504.36V551.688C1504.36 549.659 1503.74 548.04 1502.52 546.83C1501.31 545.619 1499.72 545.014 1497.76 545.014C1496.43 545.014 1495.22 545.355 1494.13 546.037C1493.04 546.702 1492.17 547.648 1491.52 548.875C1490.87 550.085 1490.55 551.5 1490.55 553.119V577H1481.29ZM1545.91 577V537.727H1555.17V577H1545.91ZM1550.57 532.153C1549.1 532.153 1547.84 531.668 1546.78 530.696C1545.72 529.707 1545.2 528.523 1545.2 527.142C1545.2 525.744 1545.72 524.56 1546.78 523.588C1547.84 522.599 1549.1 522.105 1550.57 522.105C1552.05 522.105 1553.31 522.599 1554.35 523.588C1555.41 524.56 1555.93 525.744 1555.93 527.142C1555.93 528.523 1555.41 529.707 1554.35 530.696C1553.31 531.668 1552.05 532.153 1550.57 532.153ZM1573.94 553.989V577H1564.69V537.727H1573.53V544.401H1573.99C1574.9 542.202 1576.34 540.455 1578.31 539.159C1580.31 537.864 1582.77 537.216 1585.7 537.216C1588.41 537.216 1590.77 537.795 1592.78 538.955C1594.81 540.114 1596.38 541.793 1597.49 543.991C1598.61 546.19 1599.17 548.858 1599.15 551.994V577H1589.9V553.426C1589.9 550.801 1589.21 548.747 1587.85 547.264C1586.5 545.781 1584.64 545.04 1582.25 545.04C1580.63 545.04 1579.19 545.398 1577.93 546.114C1576.69 546.812 1575.71 547.827 1574.99 549.156C1574.29 550.486 1573.94 552.097 1573.94 553.989ZM1625.64 592.545C1622.32 592.545 1619.46 592.094 1617.07 591.19C1614.69 590.304 1612.77 589.111 1611.32 587.611C1609.87 586.111 1608.87 584.449 1608.3 582.625L1616.64 580.605C1617.01 581.372 1617.56 582.131 1618.28 582.881C1618.99 583.648 1619.96 584.278 1621.17 584.773C1622.39 585.284 1623.94 585.54 1625.79 585.54C1628.42 585.54 1630.59 584.901 1632.31 583.622C1634.03 582.361 1634.9 580.281 1634.9 577.384V569.943H1634.44C1633.96 570.898 1633.26 571.878 1632.34 572.884C1631.44 573.889 1630.23 574.733 1628.73 575.415C1627.25 576.097 1625.38 576.438 1623.13 576.438C1620.12 576.438 1617.38 575.73 1614.93 574.315C1612.49 572.884 1610.55 570.753 1609.1 567.923C1607.67 565.077 1606.95 561.514 1606.95 557.236C1606.95 552.923 1607.67 549.284 1609.1 546.318C1610.55 543.335 1612.5 541.077 1614.95 539.543C1617.41 537.991 1620.14 537.216 1623.16 537.216C1625.46 537.216 1627.35 537.608 1628.84 538.392C1630.34 539.159 1631.53 540.088 1632.42 541.179C1633.3 542.253 1633.98 543.267 1634.44 544.222H1634.95V537.727H1644.07V577.639C1644.07 580.997 1643.27 583.776 1641.67 585.974C1640.07 588.173 1637.88 589.818 1635.1 590.909C1632.32 592 1629.17 592.545 1625.64 592.545ZM1625.72 569.176C1627.68 569.176 1629.35 568.699 1630.73 567.744C1632.11 566.79 1633.16 565.418 1633.87 563.628C1634.59 561.838 1634.95 559.69 1634.95 557.185C1634.95 554.713 1634.59 552.548 1633.87 550.69C1633.17 548.832 1632.13 547.392 1630.75 546.369C1629.39 545.33 1627.71 544.81 1625.72 544.81C1623.65 544.81 1621.93 545.347 1620.55 546.42C1619.17 547.494 1618.13 548.969 1617.43 550.844C1616.73 552.702 1616.38 554.815 1616.38 557.185C1616.38 559.588 1616.73 561.693 1617.43 563.5C1618.15 565.29 1619.2 566.687 1620.58 567.693C1621.98 568.682 1623.69 569.176 1625.72 569.176ZM1702.46 548.108L1694.02 549.028C1693.78 548.176 1693.37 547.375 1692.77 546.625C1692.19 545.875 1691.41 545.27 1690.42 544.81C1689.43 544.349 1688.22 544.119 1686.79 544.119C1684.86 544.119 1683.24 544.537 1681.93 545.372C1680.63 546.207 1679.99 547.29 1680.01 548.619C1679.99 549.761 1680.41 550.69 1681.26 551.406C1682.13 552.122 1683.56 552.71 1685.56 553.17L1692.26 554.602C1695.97 555.403 1698.74 556.673 1700.54 558.412C1702.37 560.151 1703.29 562.426 1703.3 565.239C1703.29 567.71 1702.56 569.892 1701.13 571.784C1699.72 573.659 1697.75 575.125 1695.22 576.182C1692.7 577.239 1689.8 577.767 1686.53 577.767C1681.72 577.767 1677.85 576.761 1674.92 574.75C1671.99 572.722 1670.24 569.901 1669.68 566.287L1678.71 565.418C1679.12 567.19 1679.99 568.528 1681.31 569.432C1682.64 570.335 1684.37 570.787 1686.5 570.787C1688.7 570.787 1690.47 570.335 1691.8 569.432C1693.14 568.528 1693.82 567.412 1693.82 566.082C1693.82 564.957 1693.38 564.028 1692.51 563.295C1691.66 562.562 1690.33 562 1688.52 561.608L1681.83 560.202C1678.06 559.418 1675.27 558.097 1673.47 556.239C1671.66 554.364 1670.76 551.994 1670.78 549.131C1670.76 546.71 1671.42 544.614 1672.75 542.841C1674.1 541.051 1675.96 539.67 1678.35 538.699C1680.75 537.71 1683.52 537.216 1686.66 537.216C1691.26 537.216 1694.88 538.196 1697.52 540.156C1700.18 542.116 1701.83 544.767 1702.46 548.108ZM1728.07 577.767C1724.15 577.767 1720.78 576.906 1717.97 575.185C1715.17 573.463 1713.01 571.085 1711.5 568.051C1710 565 1709.25 561.489 1709.25 557.517C1709.25 553.528 1710.01 550.009 1711.55 546.957C1713.08 543.889 1715.25 541.503 1718.04 539.798C1720.86 538.077 1724.18 537.216 1728.01 537.216C1731.2 537.216 1734.02 537.804 1736.48 538.98C1738.95 540.139 1740.92 541.784 1742.38 543.915C1743.85 546.028 1744.69 548.5 1744.89 551.33H1736.04C1735.69 549.437 1734.83 547.861 1733.49 546.599C1732.16 545.321 1730.38 544.682 1728.14 544.682C1726.25 544.682 1724.59 545.193 1723.16 546.216C1721.73 547.222 1720.61 548.67 1719.81 550.562C1719.02 552.455 1718.63 554.722 1718.63 557.364C1718.63 560.04 1719.02 562.341 1719.81 564.267C1720.59 566.176 1721.69 567.651 1723.11 568.69C1724.54 569.713 1726.22 570.224 1728.14 570.224C1729.51 570.224 1730.73 569.969 1731.8 569.457C1732.89 568.929 1733.8 568.17 1734.53 567.182C1735.27 566.193 1735.77 564.991 1736.04 563.577H1744.89C1744.67 566.355 1743.85 568.818 1742.44 570.966C1741.02 573.097 1739.09 574.767 1736.66 575.977C1734.22 577.17 1731.36 577.767 1728.07 577.767ZM1769.88 577.767C1765.94 577.767 1762.54 576.949 1759.67 575.312C1756.83 573.659 1754.64 571.324 1753.1 568.307C1751.57 565.273 1750.8 561.702 1750.8 557.594C1750.8 553.554 1751.57 550.009 1753.1 546.957C1754.65 543.889 1756.82 541.503 1759.6 539.798C1762.38 538.077 1765.64 537.216 1769.39 537.216C1771.81 537.216 1774.1 537.608 1776.24 538.392C1778.41 539.159 1780.32 540.352 1781.97 541.972C1783.64 543.591 1784.95 545.653 1785.91 548.159C1786.86 550.648 1787.34 553.614 1787.34 557.057V559.895H1755.15V553.656H1778.47C1778.45 551.884 1778.07 550.307 1777.32 548.926C1776.57 547.528 1775.52 546.429 1774.17 545.628C1772.84 544.827 1771.29 544.426 1769.52 544.426C1767.63 544.426 1765.96 544.886 1764.53 545.807C1763.1 546.71 1761.98 547.903 1761.18 549.386C1760.4 550.852 1760 552.463 1759.98 554.219V559.665C1759.98 561.949 1760.4 563.909 1761.23 565.545C1762.07 567.165 1763.24 568.409 1764.74 569.278C1766.24 570.131 1767.99 570.557 1770 570.557C1771.35 570.557 1772.57 570.369 1773.66 569.994C1774.75 569.602 1775.7 569.031 1776.5 568.281C1777.3 567.531 1777.9 566.602 1778.31 565.494L1786.96 566.466C1786.41 568.75 1785.37 570.744 1783.84 572.449C1782.32 574.136 1780.38 575.449 1778.01 576.386C1775.64 577.307 1772.93 577.767 1769.88 577.767ZM1804.43 553.989V577H1795.17V537.727H1804.02V544.401H1804.48C1805.38 542.202 1806.82 540.455 1808.8 539.159C1810.79 537.864 1813.25 537.216 1816.19 537.216C1818.9 537.216 1821.26 537.795 1823.27 538.955C1825.3 540.114 1826.87 541.793 1827.97 543.991C1829.1 546.19 1829.65 548.858 1829.64 551.994V577H1820.38V553.426C1820.38 550.801 1819.7 548.747 1818.33 547.264C1816.99 545.781 1815.12 545.04 1812.74 545.04C1811.12 545.04 1809.68 545.398 1808.41 546.114C1807.17 546.812 1806.19 547.827 1805.47 549.156C1804.77 550.486 1804.43 552.097 1804.43 553.989ZM1850.35 577.793C1847.86 577.793 1845.62 577.349 1843.62 576.463C1841.64 575.56 1840.08 574.23 1838.92 572.474C1837.77 570.719 1837.2 568.554 1837.2 565.98C1837.2 563.764 1837.61 561.932 1838.43 560.483C1839.25 559.034 1840.37 557.875 1841.78 557.006C1843.2 556.136 1844.79 555.48 1846.56 555.037C1848.35 554.577 1850.2 554.244 1852.11 554.04C1854.41 553.801 1856.28 553.588 1857.71 553.401C1859.14 553.196 1860.18 552.889 1860.83 552.48C1861.49 552.054 1861.83 551.398 1861.83 550.511V550.358C1861.83 548.432 1861.25 546.94 1860.11 545.884C1858.97 544.827 1857.33 544.298 1855.18 544.298C1852.91 544.298 1851.11 544.793 1849.78 545.781C1848.47 546.77 1847.58 547.937 1847.12 549.284L1838.48 548.057C1839.16 545.67 1840.29 543.676 1841.86 542.074C1843.43 540.455 1845.34 539.244 1847.61 538.443C1849.88 537.625 1852.38 537.216 1855.13 537.216C1857.02 537.216 1858.9 537.438 1860.78 537.881C1862.65 538.324 1864.37 539.057 1865.92 540.08C1867.47 541.085 1868.71 542.457 1869.65 544.196C1870.6 545.935 1871.08 548.108 1871.08 550.716V577H1862.18V571.605H1861.88C1861.31 572.696 1860.52 573.719 1859.5 574.673C1858.49 575.611 1857.22 576.369 1855.69 576.949C1854.17 577.511 1852.39 577.793 1850.35 577.793ZM1852.75 570.991C1854.61 570.991 1856.22 570.625 1857.58 569.892C1858.95 569.142 1859.99 568.153 1860.73 566.926C1861.48 565.699 1861.85 564.361 1861.85 562.912V558.284C1861.56 558.523 1861.07 558.744 1860.37 558.949C1859.69 559.153 1858.92 559.332 1858.07 559.486C1857.22 559.639 1856.37 559.776 1855.54 559.895C1854.7 560.014 1853.98 560.116 1853.36 560.202C1851.98 560.389 1850.75 560.696 1849.66 561.122C1848.56 561.548 1847.7 562.145 1847.07 562.912C1846.44 563.662 1846.13 564.634 1846.13 565.827C1846.13 567.531 1846.75 568.818 1847.99 569.688C1849.24 570.557 1850.82 570.991 1852.75 570.991ZM1880.39 577V537.727H1889.36V544.273H1889.77C1890.49 542.006 1891.72 540.259 1893.45 539.031C1895.21 537.787 1897.21 537.165 1899.46 537.165C1899.97 537.165 1900.54 537.19 1901.18 537.241C1901.82 537.276 1902.36 537.335 1902.79 537.42V545.935C1902.39 545.798 1901.77 545.679 1900.92 545.577C1900.08 545.457 1899.27 545.398 1898.49 545.398C1896.8 545.398 1895.29 545.764 1893.94 546.497C1892.61 547.213 1891.56 548.21 1890.79 549.489C1890.03 550.767 1889.64 552.241 1889.64 553.912V577H1880.39ZM1908.94 577V537.727H1918.19V577H1908.94ZM1913.59 532.153C1912.12 532.153 1910.86 531.668 1909.8 530.696C1908.75 529.707 1908.22 528.523 1908.22 527.142C1908.22 525.744 1908.75 524.56 1909.8 523.588C1910.86 522.599 1912.12 522.105 1913.59 522.105C1915.07 522.105 1916.33 522.599 1917.37 523.588C1918.43 524.56 1918.96 525.744 1918.96 527.142C1918.96 528.523 1918.43 529.707 1917.37 530.696C1916.33 531.668 1915.07 532.153 1913.59 532.153ZM1944.84 577.767C1941 577.767 1937.68 576.923 1934.87 575.236C1932.06 573.548 1929.87 571.187 1928.32 568.153C1926.79 565.119 1926.02 561.574 1926.02 557.517C1926.02 553.46 1926.79 549.906 1928.32 546.855C1929.87 543.804 1932.06 541.435 1934.87 539.747C1937.68 538.06 1941 537.216 1944.84 537.216C1948.67 537.216 1952 538.06 1954.81 539.747C1957.62 541.435 1959.8 543.804 1961.33 546.855C1962.88 549.906 1963.66 553.46 1963.66 557.517C1963.66 561.574 1962.88 565.119 1961.33 568.153C1959.8 571.187 1957.62 573.548 1954.81 575.236C1952 576.923 1948.67 577.767 1944.84 577.767ZM1944.89 570.352C1946.97 570.352 1948.71 569.781 1950.11 568.639C1951.5 567.48 1952.54 565.929 1953.23 563.986C1953.92 562.043 1954.27 559.878 1954.27 557.491C1954.27 555.088 1953.92 552.915 1953.23 550.972C1952.54 549.011 1951.5 547.452 1950.11 546.293C1948.71 545.134 1946.97 544.554 1944.89 544.554C1942.76 544.554 1940.99 545.134 1939.57 546.293C1938.17 547.452 1937.13 549.011 1936.43 550.972C1935.75 552.915 1935.4 555.088 1935.4 557.491C1935.4 559.878 1935.75 562.043 1936.43 563.986C1937.13 565.929 1938.17 567.48 1939.57 568.639C1940.99 569.781 1942.76 570.352 1944.89 570.352ZM2002.55 548.108L1994.12 549.028C1993.88 548.176 1993.46 547.375 1992.86 546.625C1992.28 545.875 1991.5 545.27 1990.51 544.81C1989.52 544.349 1988.31 544.119 1986.88 544.119C1984.95 544.119 1983.33 544.537 1982.02 545.372C1980.73 546.207 1980.09 547.29 1980.1 548.619C1980.09 549.761 1980.5 550.69 1981.36 551.406C1982.23 552.122 1983.66 552.71 1985.65 553.17L1992.35 554.602C1996.07 555.403 1998.83 556.673 2000.64 558.412C2002.46 560.151 2003.38 562.426 2003.4 565.239C2003.38 567.71 2002.66 569.892 2001.22 571.784C1999.81 573.659 1997.84 575.125 1995.32 576.182C1992.79 577.239 1989.9 577.767 1986.62 577.767C1981.82 577.767 1977.95 576.761 1975.02 574.75C1972.08 572.722 1970.34 569.901 1969.77 566.287L1978.8 565.418C1979.21 567.19 1980.08 568.528 1981.41 569.432C1982.74 570.335 1984.47 570.787 1986.6 570.787C1988.8 570.787 1990.56 570.335 1991.89 569.432C1993.24 568.528 1993.91 567.412 1993.91 566.082C1993.91 564.957 1993.48 564.028 1992.61 563.295C1991.75 562.562 1990.43 562 1988.62 561.608L1981.92 560.202C1978.15 559.418 1975.37 558.097 1973.56 556.239C1971.75 554.364 1970.86 551.994 1970.87 549.131C1970.86 546.71 1971.51 544.614 1972.84 542.841C1974.19 541.051 1976.06 539.67 1978.44 538.699C1980.85 537.71 1983.62 537.216 1986.75 537.216C1991.35 537.216 1994.98 538.196 1997.62 540.156C2000.28 542.116 2001.92 544.767 2002.55 548.108ZM1206.37 624.727V631.886H1183.79V624.727H1206.37ZM1189.36 615.318H1198.62V652.188C1198.62 653.432 1198.81 654.386 1199.18 655.051C1199.57 655.699 1200.09 656.142 1200.72 656.381C1201.35 656.619 1202.05 656.739 1202.81 656.739C1203.39 656.739 1203.92 656.696 1204.4 656.611C1204.89 656.526 1205.27 656.449 1205.52 656.381L1207.08 663.616C1206.59 663.787 1205.88 663.974 1204.96 664.179C1204.06 664.384 1202.95 664.503 1201.64 664.537C1199.32 664.605 1197.23 664.256 1195.37 663.489C1193.51 662.705 1192.04 661.494 1190.95 659.858C1189.88 658.222 1189.35 656.176 1189.36 653.722V615.318ZM1230.82 664.767C1226.98 664.767 1223.66 663.923 1220.84 662.236C1218.03 660.548 1215.85 658.187 1214.3 655.153C1212.76 652.119 1212 648.574 1212 644.517C1212 640.46 1212.76 636.906 1214.3 633.855C1215.85 630.804 1218.03 628.435 1220.84 626.747C1223.66 625.06 1226.98 624.216 1230.82 624.216C1234.65 624.216 1237.98 625.06 1240.79 626.747C1243.6 628.435 1245.77 630.804 1247.31 633.855C1248.86 636.906 1249.63 640.46 1249.63 644.517C1249.63 648.574 1248.86 652.119 1247.31 655.153C1245.77 658.187 1243.6 660.548 1240.79 662.236C1237.98 663.923 1234.65 664.767 1230.82 664.767ZM1230.87 657.352C1232.95 657.352 1234.69 656.781 1236.08 655.639C1237.48 654.48 1238.52 652.929 1239.2 650.986C1239.9 649.043 1240.25 646.878 1240.25 644.491C1240.25 642.088 1239.9 639.915 1239.2 637.972C1238.52 636.011 1237.48 634.452 1236.08 633.293C1234.69 632.134 1232.95 631.554 1230.87 631.554C1228.74 631.554 1226.96 632.134 1225.55 633.293C1224.15 634.452 1223.1 636.011 1222.4 637.972C1221.72 639.915 1221.38 642.088 1221.38 644.491C1221.38 646.878 1221.72 649.043 1222.4 650.986C1223.1 652.929 1224.15 654.48 1225.55 655.639C1226.96 656.781 1228.74 657.352 1230.87 657.352ZM1300.38 647.483V624.727H1309.64V664H1300.66V657.02H1300.25C1299.37 659.219 1297.91 661.017 1295.88 662.415C1293.87 663.812 1291.39 664.511 1288.44 664.511C1285.87 664.511 1283.59 663.94 1281.61 662.798C1279.65 661.639 1278.12 659.96 1277.01 657.761C1275.9 655.545 1275.35 652.869 1275.35 649.733V624.727H1284.61V648.301C1284.61 650.79 1285.29 652.767 1286.65 654.233C1288.01 655.699 1289.8 656.432 1292.02 656.432C1293.38 656.432 1294.7 656.099 1295.98 655.435C1297.26 654.77 1298.31 653.781 1299.13 652.469C1299.96 651.139 1300.38 649.477 1300.38 647.483ZM1350.19 635.108L1341.76 636.028C1341.52 635.176 1341.1 634.375 1340.5 633.625C1339.92 632.875 1339.14 632.27 1338.15 631.81C1337.16 631.349 1335.95 631.119 1334.52 631.119C1332.59 631.119 1330.98 631.537 1329.66 632.372C1328.37 633.207 1327.73 634.29 1327.75 635.619C1327.73 636.761 1328.15 637.69 1329 638.406C1329.87 639.122 1331.3 639.71 1333.29 640.17L1339.99 641.602C1343.71 642.403 1346.47 643.673 1348.28 645.412C1350.1 647.151 1351.02 649.426 1351.04 652.239C1351.02 654.71 1350.3 656.892 1348.86 658.784C1347.45 660.659 1345.48 662.125 1342.96 663.182C1340.44 664.239 1337.54 664.767 1334.26 664.767C1329.46 664.767 1325.59 663.761 1322.66 661.75C1319.73 659.722 1317.98 656.901 1317.42 653.287L1326.44 652.418C1326.85 654.19 1327.72 655.528 1329.05 656.432C1330.38 657.335 1332.11 657.787 1334.24 657.787C1336.44 657.787 1338.2 657.335 1339.53 656.432C1340.88 655.528 1341.55 654.412 1341.55 653.082C1341.55 651.957 1341.12 651.028 1340.25 650.295C1339.4 649.562 1338.07 649 1336.26 648.608L1329.56 647.202C1325.79 646.418 1323.01 645.097 1321.2 643.239C1319.39 641.364 1318.5 638.994 1318.51 636.131C1318.5 633.71 1319.15 631.614 1320.48 629.841C1321.83 628.051 1323.7 626.67 1326.08 625.699C1328.49 624.71 1331.26 624.216 1334.39 624.216C1339 624.216 1342.62 625.196 1345.26 627.156C1347.92 629.116 1349.56 631.767 1350.19 635.108ZM1376.06 664.767C1372.12 664.767 1368.72 663.949 1365.85 662.312C1363.01 660.659 1360.82 658.324 1359.28 655.307C1357.75 652.273 1356.98 648.702 1356.98 644.594C1356.98 640.554 1357.75 637.009 1359.28 633.957C1360.83 630.889 1363 628.503 1365.78 626.798C1368.56 625.077 1371.82 624.216 1375.57 624.216C1377.99 624.216 1380.27 624.608 1382.42 625.392C1384.59 626.159 1386.5 627.352 1388.15 628.972C1389.82 630.591 1391.13 632.653 1392.09 635.159C1393.04 637.648 1393.52 640.614 1393.52 644.057V646.895H1361.33V640.656H1384.65C1384.63 638.884 1384.25 637.307 1383.5 635.926C1382.75 634.528 1381.7 633.429 1380.35 632.628C1379.02 631.827 1377.47 631.426 1375.7 631.426C1373.81 631.426 1372.14 631.886 1370.71 632.807C1369.28 633.71 1368.16 634.903 1367.36 636.386C1366.58 637.852 1366.18 639.463 1366.16 641.219V646.665C1366.16 648.949 1366.58 650.909 1367.41 652.545C1368.25 654.165 1369.42 655.409 1370.92 656.278C1372.42 657.131 1374.17 657.557 1376.18 657.557C1377.53 657.557 1378.75 657.369 1379.84 656.994C1380.93 656.602 1381.88 656.031 1382.68 655.281C1383.48 654.531 1384.08 653.602 1384.49 652.494L1393.14 653.466C1392.59 655.75 1391.55 657.744 1390.02 659.449C1388.5 661.136 1386.56 662.449 1384.19 663.386C1381.82 664.307 1379.11 664.767 1376.06 664.767ZM1430.51 664.793C1428.02 664.793 1425.78 664.349 1423.79 663.463C1421.81 662.56 1420.24 661.23 1419.08 659.474C1417.94 657.719 1417.37 655.554 1417.37 652.98C1417.37 650.764 1417.78 648.932 1418.6 647.483C1419.41 646.034 1420.53 644.875 1421.94 644.006C1423.36 643.136 1424.95 642.48 1426.73 642.037C1428.52 641.577 1430.37 641.244 1432.27 641.04C1434.58 640.801 1436.44 640.588 1437.87 640.401C1439.31 640.196 1440.35 639.889 1440.99 639.48C1441.66 639.054 1441.99 638.398 1441.99 637.511V637.358C1441.99 635.432 1441.42 633.94 1440.28 632.884C1439.13 631.827 1437.49 631.298 1435.34 631.298C1433.08 631.298 1431.28 631.793 1429.95 632.781C1428.63 633.77 1427.75 634.937 1427.29 636.284L1418.65 635.057C1419.33 632.67 1420.45 630.676 1422.02 629.074C1423.59 627.455 1425.51 626.244 1427.77 625.443C1430.04 624.625 1432.55 624.216 1435.29 624.216C1437.18 624.216 1439.07 624.438 1440.94 624.881C1442.82 625.324 1444.53 626.057 1446.08 627.08C1447.63 628.085 1448.88 629.457 1449.81 631.196C1450.77 632.935 1451.25 635.108 1451.25 637.716V664H1442.35V658.605H1442.04C1441.48 659.696 1440.69 660.719 1439.66 661.673C1438.66 662.611 1437.39 663.369 1435.85 663.949C1434.34 664.511 1432.56 664.793 1430.51 664.793ZM1432.91 657.991C1434.77 657.991 1436.38 657.625 1437.75 656.892C1439.11 656.142 1440.16 655.153 1440.89 653.926C1441.64 652.699 1442.02 651.361 1442.02 649.912V645.284C1441.73 645.523 1441.23 645.744 1440.53 645.949C1439.85 646.153 1439.08 646.332 1438.23 646.486C1437.38 646.639 1436.54 646.776 1435.7 646.895C1434.87 647.014 1434.14 647.116 1433.53 647.202C1432.15 647.389 1430.91 647.696 1429.82 648.122C1428.73 648.548 1427.87 649.145 1427.24 649.912C1426.61 650.662 1426.29 651.634 1426.29 652.827C1426.29 654.531 1426.91 655.818 1428.16 656.688C1429.4 657.557 1430.99 657.991 1432.91 657.991ZM1491.59 635.108L1483.15 636.028C1482.92 635.176 1482.5 634.375 1481.9 633.625C1481.32 632.875 1480.54 632.27 1479.55 631.81C1478.56 631.349 1477.35 631.119 1475.92 631.119C1473.99 631.119 1472.37 631.537 1471.06 632.372C1469.77 633.207 1469.13 634.29 1469.14 635.619C1469.13 636.761 1469.54 637.69 1470.4 638.406C1471.27 639.122 1472.7 639.71 1474.69 640.17L1481.39 641.602C1485.11 642.403 1487.87 643.673 1489.67 645.412C1491.5 647.151 1492.42 649.426 1492.44 652.239C1492.42 654.71 1491.69 656.892 1490.26 658.784C1488.85 660.659 1486.88 662.125 1484.36 663.182C1481.83 664.239 1478.94 664.767 1475.66 664.767C1470.86 664.767 1466.99 663.761 1464.06 661.75C1461.12 659.722 1459.38 656.901 1458.81 653.287L1467.84 652.418C1468.25 654.19 1469.12 655.528 1470.45 656.432C1471.78 657.335 1473.51 657.787 1475.64 657.787C1477.84 657.787 1479.6 657.335 1480.93 656.432C1482.28 655.528 1482.95 654.412 1482.95 653.082C1482.95 651.957 1482.52 651.028 1481.65 650.295C1480.79 649.562 1479.46 649 1477.66 648.608L1470.96 647.202C1467.19 646.418 1464.4 645.097 1462.6 643.239C1460.79 641.364 1459.9 638.994 1459.91 636.131C1459.9 633.71 1460.55 631.614 1461.88 629.841C1463.23 628.051 1465.1 626.67 1467.48 625.699C1469.88 624.71 1472.65 624.216 1475.79 624.216C1480.39 624.216 1484.02 625.196 1486.66 627.156C1489.32 629.116 1490.96 631.767 1491.59 635.108ZM1537.54 624.727V631.886H1514.96V624.727H1537.54ZM1520.54 615.318H1529.79V652.188C1529.79 653.432 1529.98 654.386 1530.35 655.051C1530.75 655.699 1531.26 656.142 1531.89 656.381C1532.52 656.619 1533.22 656.739 1533.98 656.739C1534.56 656.739 1535.09 656.696 1535.57 656.611C1536.06 656.526 1536.44 656.449 1536.69 656.381L1538.25 663.616C1537.76 663.787 1537.05 663.974 1536.13 664.179C1535.23 664.384 1534.12 664.503 1532.81 664.537C1530.49 664.605 1528.4 664.256 1526.54 663.489C1524.69 662.705 1523.21 661.494 1522.12 659.858C1521.05 658.222 1520.52 656.176 1520.54 653.722V615.318ZM1562.24 664.767C1558.31 664.767 1554.91 663.949 1552.04 662.312C1549.2 660.659 1547 658.324 1545.47 655.307C1543.94 652.273 1543.17 648.702 1543.17 644.594C1543.17 640.554 1543.94 637.009 1545.47 633.957C1547.02 630.889 1549.19 628.503 1551.97 626.798C1554.74 625.077 1558.01 624.216 1561.76 624.216C1564.18 624.216 1566.46 624.608 1568.61 625.392C1570.77 626.159 1572.68 627.352 1574.34 628.972C1576.01 630.591 1577.32 632.653 1578.27 635.159C1579.23 637.648 1579.71 640.614 1579.71 644.057V646.895H1547.52V640.656H1570.83C1570.82 638.884 1570.43 637.307 1569.68 635.926C1568.93 634.528 1567.89 633.429 1566.54 632.628C1565.21 631.827 1563.66 631.426 1561.89 631.426C1559.99 631.426 1558.33 631.886 1556.9 632.807C1555.47 633.71 1554.35 634.903 1553.55 636.386C1552.77 637.852 1552.37 639.463 1552.35 641.219V646.665C1552.35 648.949 1552.77 650.909 1553.6 652.545C1554.44 654.165 1555.6 655.409 1557.1 656.278C1558.6 657.131 1560.36 657.557 1562.37 657.557C1563.72 657.557 1564.94 657.369 1566.03 656.994C1567.12 656.602 1568.06 656.031 1568.87 655.281C1569.67 654.531 1570.27 653.602 1570.68 652.494L1579.32 653.466C1578.78 655.75 1577.74 657.744 1576.2 659.449C1574.69 661.136 1572.74 662.449 1570.37 663.386C1568 664.307 1565.29 664.767 1562.24 664.767ZM1604.67 664.767C1600.75 664.767 1597.38 663.906 1594.57 662.185C1591.77 660.463 1589.62 658.085 1588.1 655.051C1586.6 652 1585.85 648.489 1585.85 644.517C1585.85 640.528 1586.62 637.009 1588.15 633.957C1589.68 630.889 1591.85 628.503 1594.64 626.798C1597.46 625.077 1600.78 624.216 1604.62 624.216C1607.8 624.216 1610.63 624.804 1613.08 625.98C1615.55 627.139 1617.52 628.784 1618.99 630.915C1620.45 633.028 1621.29 635.5 1621.49 638.33H1612.64C1612.29 636.437 1611.43 634.861 1610.09 633.599C1608.76 632.321 1606.98 631.682 1604.74 631.682C1602.85 631.682 1601.19 632.193 1599.76 633.216C1598.33 634.222 1597.21 635.67 1596.41 637.562C1595.63 639.455 1595.23 641.722 1595.23 644.364C1595.23 647.04 1595.63 649.341 1596.41 651.267C1597.19 653.176 1598.29 654.651 1599.71 655.69C1601.14 656.713 1602.82 657.224 1604.74 657.224C1606.11 657.224 1607.33 656.969 1608.4 656.457C1609.49 655.929 1610.4 655.17 1611.14 654.182C1611.87 653.193 1612.37 651.991 1612.64 650.577H1621.49C1621.27 653.355 1620.45 655.818 1619.04 657.966C1617.62 660.097 1615.7 661.767 1613.26 662.977C1610.82 664.17 1607.96 664.767 1604.67 664.767ZM1638.35 640.989V664H1629.09V611.636H1638.14V631.401H1638.6C1639.52 629.185 1640.95 627.437 1642.87 626.159C1644.82 624.864 1647.29 624.216 1650.29 624.216C1653.01 624.216 1655.39 624.787 1657.42 625.929C1659.45 627.071 1661.02 628.741 1662.13 630.94C1663.25 633.139 1663.81 635.824 1663.81 638.994V664H1654.56V640.426C1654.56 637.784 1653.88 635.73 1652.51 634.264C1651.17 632.781 1649.27 632.04 1646.84 632.04C1645.2 632.04 1643.73 632.398 1642.44 633.114C1641.16 633.812 1640.15 634.827 1639.42 636.156C1638.71 637.486 1638.35 639.097 1638.35 640.989ZM1682.5 640.989V664H1673.25V624.727H1682.09V631.401H1682.55C1683.46 629.202 1684.9 627.455 1686.88 626.159C1688.87 624.864 1691.33 624.216 1694.26 624.216C1696.98 624.216 1699.34 624.795 1701.35 625.955C1703.38 627.114 1704.94 628.793 1706.05 630.991C1707.18 633.19 1707.73 635.858 1707.71 638.994V664H1698.46V640.426C1698.46 637.801 1697.78 635.747 1696.41 634.264C1695.07 632.781 1693.2 632.04 1690.81 632.04C1689.19 632.04 1687.75 632.398 1686.49 633.114C1685.25 633.812 1684.27 634.827 1683.55 636.156C1682.85 637.486 1682.5 639.097 1682.5 640.989ZM1717.12 664V624.727H1726.38V664H1717.12ZM1721.78 619.153C1720.31 619.153 1719.05 618.668 1717.99 617.696C1716.94 616.707 1716.41 615.523 1716.41 614.142C1716.41 612.744 1716.94 611.56 1717.99 610.588C1719.05 609.599 1720.31 609.105 1721.78 609.105C1723.26 609.105 1724.52 609.599 1725.56 610.588C1726.62 611.56 1727.15 612.744 1727.15 614.142C1727.15 615.523 1726.62 616.707 1725.56 617.696C1724.52 618.668 1723.26 619.153 1721.78 619.153ZM1753.03 664.767C1749.11 664.767 1745.74 663.906 1742.93 662.185C1740.13 660.463 1737.98 658.085 1736.46 655.051C1734.96 652 1734.21 648.489 1734.21 644.517C1734.21 640.528 1734.98 637.009 1736.51 633.957C1738.04 630.889 1740.21 628.503 1743 626.798C1745.82 625.077 1749.14 624.216 1752.98 624.216C1756.16 624.216 1758.98 624.804 1761.44 625.98C1763.91 627.139 1765.88 628.784 1767.35 630.915C1768.81 633.028 1769.65 635.5 1769.85 638.33H1761C1760.65 636.437 1759.79 634.861 1758.45 633.599C1757.12 632.321 1755.34 631.682 1753.1 631.682C1751.21 631.682 1749.55 632.193 1748.12 633.216C1746.69 634.222 1745.57 635.67 1744.77 637.562C1743.98 639.455 1743.59 641.722 1743.59 644.364C1743.59 647.04 1743.98 649.341 1744.77 651.267C1745.55 653.176 1746.65 654.651 1748.07 655.69C1749.5 656.713 1751.18 657.224 1753.1 657.224C1754.47 657.224 1755.69 656.969 1756.76 656.457C1757.85 655.929 1758.76 655.17 1759.5 654.182C1760.23 653.193 1760.73 651.991 1761 650.577H1769.85C1769.63 653.355 1768.81 655.818 1767.4 657.966C1765.98 660.097 1764.06 661.767 1761.62 662.977C1759.18 664.17 1756.32 664.767 1753.03 664.767ZM1788.75 664.793C1786.26 664.793 1784.02 664.349 1782.03 663.463C1780.05 662.56 1778.48 661.23 1777.32 659.474C1776.18 657.719 1775.61 655.554 1775.61 652.98C1775.61 650.764 1776.02 648.932 1776.84 647.483C1777.66 646.034 1778.77 644.875 1780.19 644.006C1781.6 643.136 1783.2 642.48 1784.97 642.037C1786.76 641.577 1788.61 641.244 1790.52 641.04C1792.82 640.801 1794.68 640.588 1796.12 640.401C1797.55 640.196 1798.59 639.889 1799.24 639.48C1799.9 639.054 1800.23 638.398 1800.23 637.511V637.358C1800.23 635.432 1799.66 633.94 1798.52 632.884C1797.38 631.827 1795.73 631.298 1793.58 631.298C1791.32 631.298 1789.52 631.793 1788.19 632.781C1786.88 633.77 1785.99 634.937 1785.53 636.284L1776.89 635.057C1777.57 632.67 1778.7 630.676 1780.26 629.074C1781.83 627.455 1783.75 626.244 1786.02 625.443C1788.28 624.625 1790.79 624.216 1793.53 624.216C1795.43 624.216 1797.31 624.438 1799.18 624.881C1801.06 625.324 1802.77 626.057 1804.32 627.08C1805.87 628.085 1807.12 629.457 1808.06 631.196C1809.01 632.935 1809.49 635.108 1809.49 637.716V664H1800.59V658.605H1800.28C1799.72 659.696 1798.93 660.719 1797.91 661.673C1796.9 662.611 1795.63 663.369 1794.1 663.949C1792.58 664.511 1790.8 664.793 1788.75 664.793ZM1791.16 657.991C1793.01 657.991 1794.62 657.625 1795.99 656.892C1797.35 656.142 1798.4 655.153 1799.13 653.926C1799.88 652.699 1800.26 651.361 1800.26 649.912V645.284C1799.97 645.523 1799.47 645.744 1798.77 645.949C1798.09 646.153 1797.33 646.332 1796.47 646.486C1795.62 646.639 1794.78 646.776 1793.94 646.895C1793.11 647.014 1792.38 647.116 1791.77 647.202C1790.39 647.389 1789.15 647.696 1788.06 648.122C1786.97 648.548 1786.11 649.145 1785.48 649.912C1784.85 650.662 1784.53 651.634 1784.53 652.827C1784.53 654.531 1785.16 655.818 1786.4 656.688C1787.64 657.557 1789.23 657.991 1791.16 657.991ZM1828.05 611.636V664H1818.79V611.636H1828.05ZM1186.76 751V711.727H1196.01V751H1186.76ZM1191.41 706.153C1189.94 706.153 1188.68 705.668 1187.62 704.696C1186.57 703.707 1186.04 702.523 1186.04 701.142C1186.04 699.744 1186.57 698.56 1187.62 697.588C1188.68 696.599 1189.94 696.105 1191.41 696.105C1192.89 696.105 1194.15 696.599 1195.19 697.588C1196.25 698.56 1196.78 699.744 1196.78 701.142C1196.78 702.523 1196.25 703.707 1195.19 704.696C1194.15 705.668 1192.89 706.153 1191.41 706.153ZM1214.78 727.989V751H1205.53V711.727H1214.38V718.401H1214.84C1215.74 716.202 1217.18 714.455 1219.16 713.159C1221.15 711.864 1223.61 711.216 1226.55 711.216C1229.26 711.216 1231.62 711.795 1233.63 712.955C1235.66 714.114 1237.23 715.793 1238.33 717.991C1239.46 720.19 1240.01 722.858 1240 725.994V751H1230.74V727.426C1230.74 724.801 1230.06 722.747 1228.69 721.264C1227.35 719.781 1225.48 719.04 1223.09 719.04C1221.48 719.04 1220.03 719.398 1218.77 720.114C1217.53 720.812 1216.55 721.827 1215.83 723.156C1215.13 724.486 1214.78 726.097 1214.78 727.989ZM1269.01 711.727V718.886H1246.44V711.727H1269.01ZM1252.01 702.318H1261.27V739.188C1261.27 740.432 1261.46 741.386 1261.83 742.051C1262.22 742.699 1262.73 743.142 1263.36 743.381C1264 743.619 1264.69 743.739 1265.46 743.739C1266.04 743.739 1266.57 743.696 1267.05 743.611C1267.54 743.526 1267.92 743.449 1268.17 743.381L1269.73 750.616C1269.24 750.787 1268.53 750.974 1267.61 751.179C1266.71 751.384 1265.6 751.503 1264.28 751.537C1261.97 751.605 1259.88 751.256 1258.02 750.489C1256.16 749.705 1254.69 748.494 1253.6 746.858C1252.52 745.222 1252 743.176 1252.01 740.722V702.318ZM1293.72 751.767C1289.78 751.767 1286.38 750.949 1283.52 749.312C1280.67 747.659 1278.48 745.324 1276.95 742.307C1275.41 739.273 1274.65 735.702 1274.65 731.594C1274.65 727.554 1275.41 724.009 1276.95 720.957C1278.5 717.889 1280.66 715.503 1283.44 713.798C1286.22 712.077 1289.48 711.216 1293.23 711.216C1295.65 711.216 1297.94 711.608 1300.09 712.392C1302.25 713.159 1304.16 714.352 1305.81 715.972C1307.48 717.591 1308.8 719.653 1309.75 722.159C1310.71 724.648 1311.18 727.614 1311.18 731.057V733.895H1278.99V727.656H1302.31C1302.29 725.884 1301.91 724.307 1301.16 722.926C1300.41 721.528 1299.36 720.429 1298.02 719.628C1296.69 718.827 1295.13 718.426 1293.36 718.426C1291.47 718.426 1289.81 718.886 1288.38 719.807C1286.94 720.71 1285.83 721.903 1285.03 723.386C1284.24 724.852 1283.84 726.463 1283.83 728.219V733.665C1283.83 735.949 1284.24 737.909 1285.08 739.545C1285.91 741.165 1287.08 742.409 1288.58 743.278C1290.08 744.131 1291.84 744.557 1293.85 744.557C1295.19 744.557 1296.41 744.369 1297.5 743.994C1298.6 743.602 1299.54 743.031 1300.34 742.281C1301.14 741.531 1301.75 740.602 1302.16 739.494L1310.8 740.466C1310.25 742.75 1309.21 744.744 1307.68 746.449C1306.16 748.136 1304.22 749.449 1301.85 750.386C1299.48 751.307 1296.77 751.767 1293.72 751.767ZM1319.01 751V711.727H1327.99V718.273H1328.4C1329.11 716.006 1330.34 714.259 1332.08 713.031C1333.83 711.787 1335.84 711.165 1338.09 711.165C1338.6 711.165 1339.17 711.19 1339.8 711.241C1340.45 711.276 1340.99 711.335 1341.41 711.42V719.935C1341.02 719.798 1340.4 719.679 1339.54 719.577C1338.71 719.457 1337.9 719.398 1337.12 719.398C1335.43 719.398 1333.91 719.764 1332.56 720.497C1331.24 721.213 1330.19 722.21 1329.42 723.489C1328.65 724.767 1328.27 726.241 1328.27 727.912V751H1319.01ZM1383.84 711.727L1369.85 751H1359.62L1345.64 711.727H1355.51L1364.53 740.901H1364.94L1373.99 711.727H1383.84ZM1390.24 751V711.727H1399.5V751H1390.24ZM1394.89 706.153C1393.43 706.153 1392.17 705.668 1391.11 704.696C1390.05 703.707 1389.52 702.523 1389.52 701.142C1389.52 699.744 1390.05 698.56 1391.11 697.588C1392.17 696.599 1393.43 696.105 1394.89 696.105C1396.38 696.105 1397.64 696.599 1398.68 697.588C1399.73 698.56 1400.26 699.744 1400.26 701.142C1400.26 702.523 1399.73 703.707 1398.68 704.696C1397.64 705.668 1396.38 706.153 1394.89 706.153ZM1426.4 751.767C1422.46 751.767 1419.06 750.949 1416.2 749.312C1413.35 747.659 1411.16 745.324 1409.63 742.307C1408.09 739.273 1407.33 735.702 1407.33 731.594C1407.33 727.554 1408.09 724.009 1409.63 720.957C1411.18 717.889 1413.34 715.503 1416.12 713.798C1418.9 712.077 1422.16 711.216 1425.91 711.216C1428.33 711.216 1430.62 711.608 1432.77 712.392C1434.93 713.159 1436.84 714.352 1438.49 715.972C1440.16 717.591 1441.48 719.653 1442.43 722.159C1443.39 724.648 1443.86 727.614 1443.86 731.057V733.895H1411.67V727.656H1434.99C1434.97 725.884 1434.59 724.307 1433.84 722.926C1433.09 721.528 1432.04 720.429 1430.7 719.628C1429.37 718.827 1427.81 718.426 1426.04 718.426C1424.15 718.426 1422.49 718.886 1421.06 719.807C1419.62 720.71 1418.51 721.903 1417.71 723.386C1416.92 724.852 1416.52 726.463 1416.5 728.219V733.665C1416.5 735.949 1416.92 737.909 1417.76 739.545C1418.59 741.165 1419.76 742.409 1421.26 743.278C1422.76 744.131 1424.52 744.557 1426.53 744.557C1427.87 744.557 1429.09 744.369 1430.18 743.994C1431.27 743.602 1432.22 743.031 1433.02 742.281C1433.82 741.531 1434.43 740.602 1434.84 739.494L1443.48 740.466C1442.93 742.75 1441.89 744.744 1440.36 746.449C1438.84 748.136 1436.9 749.449 1434.53 750.386C1432.16 751.307 1429.45 751.767 1426.4 751.767ZM1459.59 751L1448.49 711.727H1457.93L1464.83 739.341H1465.19L1472.24 711.727H1481.58L1488.63 739.188H1489.02L1495.82 711.727H1505.28L1494.16 751H1484.52L1477.15 724.46H1476.62L1469.25 751H1459.59ZM1542.78 722.108L1534.34 723.028C1534.1 722.176 1533.69 721.375 1533.09 720.625C1532.51 719.875 1531.73 719.27 1530.74 718.81C1529.75 718.349 1528.54 718.119 1527.11 718.119C1525.18 718.119 1523.56 718.537 1522.25 719.372C1520.95 720.207 1520.31 721.29 1520.33 722.619C1520.31 723.761 1520.73 724.69 1521.58 725.406C1522.45 726.122 1523.88 726.71 1525.88 727.17L1532.58 728.602C1536.29 729.403 1539.06 730.673 1540.86 732.412C1542.69 734.151 1543.61 736.426 1543.62 739.239C1543.61 741.71 1542.88 743.892 1541.45 745.784C1540.04 747.659 1538.07 749.125 1535.54 750.182C1533.02 751.239 1530.12 751.767 1526.85 751.767C1522.04 751.767 1518.17 750.761 1515.24 748.75C1512.31 746.722 1510.56 743.901 1510 740.287L1519.03 739.418C1519.44 741.19 1520.31 742.528 1521.63 743.432C1522.96 744.335 1524.69 744.787 1526.83 744.787C1529.02 744.787 1530.79 744.335 1532.12 743.432C1533.46 742.528 1534.14 741.412 1534.14 740.082C1534.14 738.957 1533.7 738.028 1532.83 737.295C1531.98 736.562 1530.65 736 1528.85 735.608L1522.15 734.202C1518.38 733.418 1515.59 732.097 1513.79 730.239C1511.98 728.364 1511.08 725.994 1511.1 723.131C1511.08 720.71 1511.74 718.614 1513.07 716.841C1514.42 715.051 1516.28 713.67 1518.67 712.699C1521.07 711.71 1523.84 711.216 1526.98 711.216C1531.58 711.216 1535.2 712.196 1537.85 714.156C1540.5 716.116 1542.15 718.767 1542.78 722.108Z" fill="#111111"/>
<path d="M1195.84 936L1184.13 896.182H1192.14L1199.94 925.423H1200.33L1208.16 896.182H1216.17L1223.94 925.294H1224.33L1232.08 896.182H1240.09L1228.4 936H1220.5L1212.41 907.251H1211.81L1203.72 936H1195.84ZM1256.08 936L1244.36 896.182H1252.38L1260.18 925.423H1260.57L1268.4 896.182H1276.41L1284.18 925.294H1284.57L1292.32 896.182H1300.33L1288.64 936H1280.74L1272.65 907.251H1272.05L1263.96 936H1256.08ZM1316.32 936L1304.6 896.182H1312.61L1320.42 925.423H1320.81L1328.64 896.182H1336.65L1344.42 925.294H1344.81L1352.56 896.182H1360.57L1348.88 936H1340.97L1332.89 907.251H1332.29L1324.2 936H1316.32ZM1367.62 936.493C1366.2 936.493 1364.98 935.991 1363.96 934.989C1362.94 933.969 1362.43 932.742 1362.43 931.308C1362.43 929.891 1362.94 928.681 1363.96 927.679C1364.98 926.659 1366.2 926.149 1367.62 926.149C1369.03 926.149 1370.25 926.659 1371.27 927.679C1372.29 928.681 1372.8 929.891 1372.8 931.308C1372.8 932.258 1372.56 933.131 1372.08 933.926C1371.61 934.704 1370.99 935.326 1370.21 935.793C1369.43 936.259 1368.57 936.493 1367.62 936.493ZM1383.18 936V896.182H1390.94V936H1383.18ZM1387.1 890.038C1385.75 890.038 1384.59 889.589 1383.62 888.69C1382.67 887.774 1382.2 886.685 1382.2 885.424C1382.2 884.145 1382.67 883.056 1383.62 882.157C1384.59 881.241 1385.75 880.783 1387.1 880.783C1388.45 880.783 1389.6 881.241 1390.55 882.157C1391.51 883.056 1392 884.145 1392 885.424C1392 886.685 1391.51 887.774 1390.55 888.69C1389.6 889.589 1388.45 890.038 1387.1 890.038ZM1409.11 912.358V936H1401.36V896.182H1408.8V902.663H1409.3C1410.21 900.554 1411.65 898.861 1413.6 897.582C1415.57 896.303 1418.05 895.663 1421.04 895.663C1423.75 895.663 1426.13 896.234 1428.17 897.374C1430.21 898.498 1431.79 900.174 1432.91 902.403C1434.03 904.633 1434.6 907.389 1434.6 910.673V936H1426.85V911.606C1426.85 908.72 1426.09 906.465 1424.59 904.84C1423.09 903.198 1421.02 902.377 1418.39 902.377C1416.6 902.377 1415 902.766 1413.6 903.544C1412.22 904.322 1411.12 905.462 1410.31 906.966C1409.51 908.452 1409.11 910.25 1409.11 912.358ZM1463.58 896.182V902.403H1441.83V896.182H1463.58ZM1447.66 886.642H1455.41V924.309C1455.41 925.812 1455.64 926.944 1456.09 927.705C1456.54 928.448 1457.12 928.958 1457.82 929.234C1458.55 929.493 1459.34 929.623 1460.18 929.623C1460.81 929.623 1461.35 929.58 1461.82 929.493C1462.28 929.407 1462.65 929.338 1462.9 929.286L1464.3 935.689C1463.86 935.862 1463.22 936.035 1462.39 936.207C1461.56 936.397 1460.52 936.501 1459.28 936.518C1457.24 936.553 1455.34 936.19 1453.57 935.43C1451.81 934.669 1450.38 933.494 1449.3 931.904C1448.21 930.314 1447.66 928.318 1447.66 925.916V886.642ZM1488.89 936.804C1484.96 936.804 1481.58 935.965 1478.75 934.289C1475.93 932.595 1473.76 930.219 1472.22 927.16C1470.7 924.084 1469.94 920.481 1469.94 916.35C1469.94 912.272 1470.7 908.677 1472.22 905.566C1473.76 902.455 1475.9 900.027 1478.65 898.282C1481.41 896.536 1484.64 895.663 1488.34 895.663C1490.59 895.663 1492.77 896.035 1494.87 896.778C1496.98 897.521 1498.88 898.688 1500.55 900.278C1502.23 901.868 1503.55 903.933 1504.52 906.473C1505.49 908.997 1505.97 912.064 1505.97 915.676V918.424H1474.32V912.617H1498.37C1498.37 910.578 1497.96 908.772 1497.13 907.199C1496.3 905.609 1495.13 904.356 1493.63 903.44C1492.14 902.524 1490.4 902.066 1488.39 902.066C1486.22 902.066 1484.32 902.602 1482.69 903.674C1481.08 904.728 1479.84 906.11 1478.96 907.821C1478.09 909.515 1477.66 911.356 1477.66 913.343V917.88C1477.66 920.541 1478.13 922.805 1479.06 924.672C1480.01 926.538 1481.33 927.964 1483.03 928.949C1484.72 929.917 1486.7 930.401 1488.96 930.401C1490.43 930.401 1491.77 930.193 1492.98 929.778C1494.19 929.346 1495.24 928.707 1496.12 927.86C1497 927.013 1497.67 925.968 1498.14 924.723L1505.48 926.045C1504.89 928.206 1503.84 930.098 1502.31 931.723C1500.81 933.33 1498.92 934.583 1496.64 935.482C1494.37 936.363 1491.79 936.804 1488.89 936.804ZM1514.57 936V896.182H1522.06V902.507H1522.48C1523.2 900.364 1524.48 898.679 1526.31 897.452C1528.16 896.208 1530.25 895.586 1532.59 895.586C1533.07 895.586 1533.64 895.603 1534.3 895.637C1534.97 895.672 1535.5 895.715 1535.88 895.767V903.181C1535.57 903.095 1535.01 903 1534.22 902.896C1533.42 902.775 1532.63 902.714 1531.83 902.714C1530 902.714 1528.37 903.103 1526.94 903.881C1525.52 904.641 1524.39 905.704 1523.57 907.07C1522.74 908.418 1522.32 909.956 1522.32 911.684V936H1514.57ZM1577.86 896.182L1563.42 936H1555.13L1540.66 896.182H1548.98L1559.07 926.823H1559.48L1569.54 896.182H1577.86ZM1585.15 936V896.182H1592.9V936H1585.15ZM1589.06 890.038C1587.71 890.038 1586.55 889.589 1585.59 888.69C1584.64 887.774 1584.16 886.685 1584.16 885.424C1584.16 884.145 1584.64 883.056 1585.59 882.157C1586.55 881.241 1587.71 880.783 1589.06 880.783C1590.41 880.783 1591.56 881.241 1592.51 882.157C1593.48 883.056 1593.96 884.145 1593.96 885.424C1593.96 886.685 1593.48 887.774 1592.51 888.69C1591.56 889.589 1590.41 890.038 1589.06 890.038ZM1620.49 936.804C1616.56 936.804 1613.18 935.965 1610.35 934.289C1607.53 932.595 1605.36 930.219 1603.82 927.16C1602.3 924.084 1601.54 920.481 1601.54 916.35C1601.54 912.272 1602.3 908.677 1603.82 905.566C1605.36 902.455 1607.5 900.027 1610.25 898.282C1613.01 896.536 1616.24 895.663 1619.94 895.663C1622.19 895.663 1624.37 896.035 1626.47 896.778C1628.58 897.521 1630.48 898.688 1632.15 900.278C1633.83 901.868 1635.15 903.933 1636.12 906.473C1637.09 908.997 1637.57 912.064 1637.57 915.676V918.424H1605.92V912.617H1629.97C1629.97 910.578 1629.56 908.772 1628.73 907.199C1627.9 905.609 1626.73 904.356 1625.23 903.44C1623.74 902.524 1622 902.066 1619.99 902.066C1617.82 902.066 1615.91 902.602 1614.29 903.674C1612.68 904.728 1611.44 906.11 1610.56 907.821C1609.69 909.515 1609.26 911.356 1609.26 913.343V917.88C1609.26 920.541 1609.73 922.805 1610.66 924.672C1611.61 926.538 1612.93 927.964 1614.63 928.949C1616.32 929.917 1618.3 930.401 1620.56 930.401C1622.03 930.401 1623.37 930.193 1624.58 929.778C1625.79 929.346 1626.84 928.707 1627.72 927.86C1628.6 927.013 1629.27 925.968 1629.74 924.723L1637.08 926.045C1636.49 928.206 1635.44 930.098 1633.91 931.723C1632.41 933.33 1630.52 934.583 1628.24 935.482C1625.97 936.363 1623.39 936.804 1620.49 936.804ZM1654.73 936L1643.01 896.182H1651.02L1658.83 925.423H1659.22L1667.04 896.182H1675.05L1682.83 925.294H1683.22L1690.97 896.182H1698.98L1687.29 936H1679.38L1671.3 907.251H1670.7L1662.61 936H1654.73ZM1736.18 905.903L1729.15 907.147C1728.86 906.249 1728.39 905.393 1727.75 904.581C1727.13 903.769 1726.28 903.103 1725.21 902.585C1724.14 902.066 1722.8 901.807 1721.19 901.807C1719 901.807 1717.16 902.3 1715.7 903.285C1714.23 904.253 1713.49 905.506 1713.49 907.044C1713.49 908.374 1713.98 909.446 1714.97 910.258C1715.96 911.07 1717.55 911.736 1719.74 912.254L1726.07 913.706C1729.73 914.553 1732.46 915.858 1734.26 917.62C1736.05 919.383 1736.95 921.673 1736.95 924.49C1736.95 926.875 1736.26 929.001 1734.88 930.867C1733.51 932.716 1731.6 934.168 1729.15 935.222C1726.71 936.277 1723.89 936.804 1720.67 936.804C1716.21 936.804 1712.58 935.853 1709.76 933.952C1706.94 932.034 1705.21 929.312 1704.57 925.786L1712.07 924.646C1712.53 926.598 1713.49 928.076 1714.94 929.078C1716.4 930.064 1718.29 930.556 1720.62 930.556C1723.16 930.556 1725.19 930.029 1726.71 928.975C1728.23 927.903 1728.99 926.598 1728.99 925.06C1728.99 923.816 1728.53 922.77 1727.59 921.924C1726.68 921.077 1725.27 920.437 1723.37 920.005L1716.63 918.528C1712.91 917.681 1710.17 916.333 1708.39 914.484C1706.62 912.634 1705.74 910.293 1705.74 907.458C1705.74 905.108 1706.4 903.051 1707.71 901.289C1709.02 899.526 1710.84 898.152 1713.16 897.167C1715.47 896.165 1718.12 895.663 1721.11 895.663C1725.42 895.663 1728.8 896.597 1731.28 898.463C1733.75 900.312 1735.38 902.792 1736.18 905.903ZM1750.58 936.493C1749.16 936.493 1747.95 935.991 1746.93 934.989C1745.91 933.969 1745.4 932.742 1745.4 931.308C1745.4 929.891 1745.91 928.681 1746.93 927.679C1747.95 926.659 1749.16 926.149 1750.58 926.149C1752 926.149 1753.22 926.659 1754.24 927.679C1755.26 928.681 1755.77 929.891 1755.77 931.308C1755.77 932.258 1755.52 933.131 1755.04 933.926C1754.57 934.704 1753.95 935.326 1753.17 935.793C1752.4 936.259 1751.53 936.493 1750.58 936.493ZM1795.99 905.903L1788.96 907.147C1788.67 906.249 1788.2 905.393 1787.56 904.581C1786.94 903.769 1786.09 903.103 1785.02 902.585C1783.95 902.066 1782.61 901.807 1781 901.807C1778.81 901.807 1776.98 902.3 1775.51 903.285C1774.04 904.253 1773.3 905.506 1773.3 907.044C1773.3 908.374 1773.8 909.446 1774.78 910.258C1775.77 911.07 1777.36 911.736 1779.55 912.254L1785.88 913.706C1789.54 914.553 1792.27 915.858 1794.07 917.62C1795.87 919.383 1796.76 921.673 1796.76 924.49C1796.76 926.875 1796.07 929.001 1794.69 930.867C1793.33 932.716 1791.42 934.168 1788.96 935.222C1786.52 936.277 1783.7 936.804 1780.48 936.804C1776.03 936.804 1772.39 935.853 1769.57 933.952C1766.75 932.034 1765.03 929.312 1764.39 925.786L1771.88 924.646C1772.34 926.598 1773.3 928.076 1774.76 929.078C1776.21 930.064 1778.1 930.556 1780.43 930.556C1782.97 930.556 1785 930.029 1786.52 928.975C1788.05 927.903 1788.81 926.598 1788.81 925.06C1788.81 923.816 1788.34 922.77 1787.41 921.924C1786.49 921.077 1785.08 920.437 1783.18 920.005L1776.44 918.528C1772.72 917.681 1769.98 916.333 1768.2 914.484C1766.43 912.634 1765.55 910.293 1765.55 907.458C1765.55 905.108 1766.21 903.051 1767.52 901.289C1768.84 899.526 1770.65 898.152 1772.97 897.167C1775.28 896.165 1777.94 895.663 1780.93 895.663C1785.23 895.663 1788.62 896.597 1791.09 898.463C1793.56 900.312 1795.19 902.792 1795.99 905.903ZM1822.06 936.804C1818.33 936.804 1815.07 935.948 1812.29 934.237C1809.5 932.526 1807.34 930.133 1805.81 927.056C1804.27 923.98 1803.5 920.386 1803.5 916.272C1803.5 912.142 1804.27 908.53 1805.81 905.436C1807.34 902.343 1809.5 899.941 1812.29 898.23C1815.07 896.519 1818.33 895.663 1822.06 895.663C1825.79 895.663 1829.05 896.519 1831.83 898.23C1834.61 899.941 1836.77 902.343 1838.31 905.436C1839.85 908.53 1840.62 912.142 1840.62 916.272C1840.62 920.386 1839.85 923.98 1838.31 927.056C1836.77 930.133 1834.61 932.526 1831.83 934.237C1829.05 935.948 1825.79 936.804 1822.06 936.804ZM1822.09 930.297C1824.5 930.297 1826.51 929.657 1828.1 928.379C1829.69 927.1 1830.86 925.397 1831.62 923.272C1832.4 921.146 1832.79 918.804 1832.79 916.246C1832.79 913.706 1832.4 911.373 1831.62 909.247C1830.86 907.104 1829.69 905.385 1828.1 904.088C1826.51 902.792 1824.5 902.144 1822.09 902.144C1819.65 902.144 1817.63 902.792 1816.02 904.088C1814.43 905.385 1813.25 907.104 1812.47 909.247C1811.71 911.373 1811.33 913.706 1811.33 916.246C1811.33 918.804 1811.71 921.146 1812.47 923.272C1813.25 925.397 1814.43 927.1 1816.02 928.379C1817.63 929.657 1819.65 930.297 1822.09 930.297Z" fill="#111111"/>
<path d="M1182 950.517H1844.04V955.494H1182V950.517Z" fill="#111111"/>
</g>
<defs>
<clipPath id="clip0_1_21">
<rect width="2100" height="1100" fill="white"/>
</clipPath>
</defs>
</svg>
