<?xml version="1.0" standalone="no"?>
<!DOCTYPE svg PUBLIC "-//W3C//DTD SVG 20010904//EN"
 "http://www.w3.org/TR/2001/REC-SVG-20010904/DTD/svg10.dtd">
<svg version="1.0" xmlns="http://www.w3.org/2000/svg"
 width="700.000000pt" height="700.000000pt" viewBox="0 0 700.000000 700.000000"
 preserveAspectRatio="xMidYMid meet">
<metadata>
Created by potrace 1.14, written by Peter Selinger 2001-2017
</metadata>
<g transform="translate(0.000000,700.000000) scale(0.100000,-0.100000)"
fill="#000000" stroke="none">
<path d="M3218 6635 c-1 -2 -39 -6 -83 -10 -462 -38 -981 -220 -1375 -482
-104 -69 -111 -74 -200 -142 -428 -329 -773 -781 -973 -1276 -73 -180 -140
-400 -166 -550 -6 -33 -13 -71 -16 -85 -9 -42 -13 -73 -20 -125 -3 -27 -8 -66
-11 -85 -10 -57 -12 -540 -4 -600 5 -30 11 -80 15 -110 9 -75 10 -85 35 -215
85 -452 317 -949 613 -1315 179 -219 388 -418 603 -572 426 -306 928 -502
1439 -563 198 -23 554 -24 715 0 14 2 48 6 75 9 28 4 59 9 71 11 12 3 39 7 60
10 21 4 47 8 56 11 10 3 30 7 45 10 164 28 465 133 681 236 385 185 780 496
1037 818 33 41 62 77 65 80 43 42 204 294 282 441 157 295 293 721 324 1014 2
22 6 50 9 61 9 39 18 217 18 339 1 321 -41 622 -125 894 -11 35 -21 71 -23 80
-10 45 -103 272 -159 386 -86 179 -258 457 -334 541 -9 10 -44 53 -77 94 -118
148 -397 409 -545 510 -19 13 -37 27 -40 30 -6 6 -177 116 -230 147 -87 51
-193 104 -280 142 -52 23 -104 46 -115 51 -11 5 -47 19 -80 31 -33 11 -67 23
-75 26 -21 8 -23 9 -140 43 -102 30 -214 57 -275 66 -16 3 -52 9 -80 14 -27 5
-72 12 -100 15 -27 3 -81 9 -120 14 -66 8 -489 13 -497 6z"/>
</g>
</svg>
